<?xml version="1.0" encoding="utf-8"?>
<!-- Generator: Adobe Illustrator 23.0.3, SVG Export Plug-In . SVG Version: 6.00 Build 0)  -->
<svg version="1.1" id="Layer_1" xmlns="http://www.w3.org/2000/svg" xmlns:xlink="http://www.w3.org/1999/xlink" x="0px" y="0px"
	 viewBox="0 0 32 32" style="enable-background:new 0 0 32 32;" xml:space="preserve">
<style type="text/css">
	.st0{display:none;}
	.st1{display:inline;fill:#61A60E;}
	.st2{display:inline;}
	.st3{fill:#FFFFFF;}
	.st4{fill:#61A60E;}
	.st5{fill:#F45197;}
</style>
<g class="st0">
	<path class="st1" d="M10.38-16.31h0.42l-1.31-1.43l0.11-0.02c0.23-0.05,0.42-0.13,0.53-0.23c0.15-0.14,0.22-0.3,0.22-0.5
		c0-0.17-0.06-0.31-0.17-0.44c-0.12-0.12-0.26-0.2-0.45-0.25c-0.18-0.05-0.38-0.05-0.68-0.05H8.43l0,2.93l0.45,0v-1.38h0.09l0.15,0
		L10.38-16.31z M9.18-17.86c-0.07,0-0.14,0-0.21,0H8.88v-1.21c0.05,0,0.11-0.01,0.15-0.01c0.35,0,0.54,0.05,0.63,0.15
		c0.1,0.11,0.15,0.27,0.15,0.46c0,0.11-0.01,0.2-0.04,0.28C9.74-18.11,9.7-18.05,9.65-18c-0.05,0.04-0.12,0.08-0.19,0.1
		C9.37-17.88,9.3-17.86,9.18-17.86 M17.17-16.31h0.42l-1.31-1.43l0.11-0.02c0.23-0.05,0.42-0.13,0.53-0.23
		c0.15-0.14,0.22-0.3,0.22-0.5c0-0.17-0.06-0.31-0.17-0.44c-0.12-0.12-0.26-0.2-0.45-0.25c-0.18-0.05-0.38-0.05-0.68-0.05h-0.63
		l0,2.93l0.45,0v-1.38h0.09l0.15,0L17.17-16.31z M15.98-17.86c-0.08,0-0.14,0-0.21,0h-0.09v-1.21c0.05,0,0.11-0.01,0.15-0.01
		c0.35,0,0.54,0.05,0.63,0.15c0.1,0.11,0.15,0.27,0.15,0.46c0,0.11-0.01,0.2-0.04,0.28c-0.03,0.07-0.07,0.13-0.12,0.18
		c-0.05,0.04-0.12,0.08-0.19,0.1C16.16-17.88,16.09-17.86,15.98-17.86 M1.32-19.24l-0.19,0l-1.27,2.93h0.31l0.44-1.06h1.06
		l0.44,1.07h0.46L1.32-19.24z M0.72-17.64l0.42-1.02l0.42,1.02H0.72z M7.81-19.23H7.54l0,1.64c0,0.21-0.01,0.37-0.02,0.47
		c-0.01,0.09-0.06,0.19-0.13,0.28c-0.07,0.09-0.17,0.17-0.32,0.23c-0.15,0.06-0.21,0.09-0.4,0.09c-0.23,0-0.39-0.06-0.53-0.14
		c-0.12-0.06-0.25-0.2-0.28-0.32c-0.03-0.13-0.04-0.34-0.04-0.64l0-1.62H5.38v1.9c0,0.23,0.04,0.42,0.12,0.56
		c0.08,0.14,0.22,0.25,0.41,0.34c0.19,0.09,0.42,0.13,0.68,0.13c0.23,0,0.43-0.03,0.6-0.1c0.18-0.07,0.31-0.16,0.41-0.27
		c0.1-0.12,0.16-0.24,0.18-0.36c0.02-0.12,0.03-0.3,0.03-0.54L7.81-19.23z M25.57-19.23H25.3l0,1.64c0,0.21-0.01,0.37-0.02,0.47
		c-0.02,0.09-0.06,0.19-0.13,0.28c-0.07,0.09-0.18,0.17-0.32,0.23c-0.15,0.06-0.21,0.09-0.4,0.09c-0.23,0-0.39-0.06-0.53-0.14
		c-0.12-0.06-0.26-0.2-0.28-0.32c-0.03-0.13-0.04-0.34-0.04-0.64l0-1.62h-0.45v1.9c0,0.23,0.04,0.42,0.12,0.56
		c0.08,0.14,0.21,0.25,0.4,0.34c0.19,0.09,0.42,0.13,0.68,0.13c0.23,0,0.43-0.03,0.6-0.1c0.17-0.07,0.31-0.16,0.41-0.27
		c0.1-0.12,0.16-0.24,0.18-0.36c0.02-0.12,0.03-0.3,0.03-0.54V-19.23z M-0.84-16.31l0.2,0v-2.92h-0.27v2.12l-1.79-2.12h-0.41v2.92
		h0.27l0-2.41L-0.84-16.31z M2.39-18.96h1.07v2.66l0.44,0v-2.65h1.06v-0.27H2.39 M30.74-16.31l0.01-0.27h-1.32v-2.66h-0.45l0,2.92
		L30.74-16.31z M12.97-18.97v-0.26h-1.71v2.92h1.83v-0.26l-1.37,0v-1.07l1.04,0v-0.26h-1.04v-1.07L12.97-18.97z M19.87-18.97v-0.26
		h-1.71v2.92h1.83v-0.26l-1.38,0v-1.07l1.05,0v-0.26h-1.05v-1.07L19.87-18.97z M27.67-17.85c0.16-0.08,0.28-0.16,0.34-0.25
		c0.07-0.12,0.11-0.25,0.11-0.41c0-0.17-0.05-0.32-0.16-0.44c-0.1-0.11-0.25-0.19-0.43-0.24c-0.15-0.04-0.34-0.04-0.61-0.05l-0.67,0
		v2.92l0.83,0c0.36,0,0.63-0.04,0.8-0.11c0.16-0.06,0.28-0.16,0.36-0.28c0.08-0.13,0.13-0.27,0.13-0.43c0-0.19-0.06-0.34-0.19-0.47
		C28.03-17.74,27.8-17.81,27.67-17.85 M26.71-19.08c0.04,0,0.08-0.01,0.16-0.01c0.25,0,0.43,0.05,0.55,0.15
		c0.11,0.1,0.16,0.25,0.16,0.46c0,0.14-0.03,0.25-0.09,0.35c-0.06,0.09-0.14,0.15-0.24,0.18c-0.1,0.03-0.23,0.05-0.39,0.05h-0.14
		V-19.08z M27.67-16.73c-0.07,0.1-0.17,0.17-0.27,0.2c-0.11,0.03-0.27,0.05-0.45,0.05h-0.23v-1.25h0.25c0.05,0,0.1,0,0.16,0
		c0.21,0.02,0.37,0.07,0.47,0.15c0.13,0.1,0.19,0.27,0.19,0.5C27.78-16.96,27.74-16.83,27.67-16.73 M31.27-16.31h0.45v-2.92h-0.45
		V-16.31z M22.05-19.18c-0.16-0.04-0.37-0.05-0.65-0.05l-0.72,0v2.92h0.47v-1.34h0.31c0.36,0,0.61-0.03,0.76-0.09
		c0.15-0.06,0.26-0.16,0.34-0.29c0.08-0.12,0.12-0.27,0.12-0.43c0-0.19-0.06-0.35-0.17-0.47C22.37-19.04,22.23-19.13,22.05-19.18
		 M22.01-18.06c-0.07,0.1-0.16,0.16-0.26,0.19c-0.11,0.03-0.25,0.05-0.42,0.05h-0.19v-1.26c0.05,0,0.12-0.01,0.2-0.01
		c0.27,0,0.47,0.05,0.59,0.16c0.12,0.1,0.18,0.27,0.18,0.5C22.12-18.28,22.08-18.16,22.01-18.06 M34.51-18.9v0.29l-0.06-0.08
		c-0.05-0.07-0.1-0.12-0.16-0.17c-0.19-0.14-0.42-0.21-0.67-0.21c-0.3,0-0.54,0.11-0.71,0.34c-0.18,0.23-0.27,0.56-0.27,0.99
		c0,0.4,0.1,0.72,0.29,0.93c0.19,0.21,0.44,0.32,0.72,0.32c0.15,0,0.31-0.03,0.47-0.1c0.13-0.05,0.23-0.15,0.32-0.27l0.06-0.08v0.29
		l-0.01,0.01c-0.25,0.23-0.57,0.34-0.93,0.34c-0.45,0-0.7-0.14-0.96-0.39c-0.28-0.26-0.42-0.6-0.42-1.03c0-0.28,0.06-0.54,0.19-0.79
		c0.12-0.23,0.29-0.41,0.54-0.55c0.23-0.13,0.39-0.18,0.66-0.18c0.22,0,0.42,0.04,0.61,0.13c0.13,0.06,0.23,0.13,0.32,0.2
		L34.51-18.9z"/>
	<path class="st1" d="M10.1-13v-0.95H9.94v-0.15h0.15v-0.05c0-0.16,0.04-0.3,0.13-0.38c0.07-0.07,0.18-0.1,0.27-0.1
		c0.07,0,0.13,0.02,0.17,0.03l-0.03,0.16c-0.03-0.01-0.07-0.03-0.13-0.03c-0.17,0-0.21,0.15-0.21,0.32v0.06h0.27v0.15H10.3V-13H10.1
		z M10.92-13.76c0-0.13,0-0.24-0.01-0.34h0.18l0.01,0.22h0.01c0.05-0.15,0.17-0.24,0.3-0.24c0.02,0,0.04,0,0.06,0.01v0.19
		c-0.02,0-0.04-0.01-0.07-0.01c-0.14,0-0.24,0.11-0.27,0.26c0,0.03-0.01,0.06-0.01,0.09V-13h-0.2V-13.76z M12.82-13.56
		c0,0.41-0.28,0.58-0.55,0.58c-0.3,0-0.53-0.22-0.53-0.56c0-0.37,0.24-0.59,0.55-0.59C12.61-14.13,12.82-13.89,12.82-13.56z
		 M11.95-13.55c0,0.24,0.14,0.42,0.33,0.42c0.19,0,0.34-0.18,0.34-0.43c0-0.19-0.09-0.42-0.33-0.42
		C12.05-13.98,11.95-13.76,11.95-13.55z M13.26-13.8c0-0.11,0-0.21-0.01-0.3h0.18l0.01,0.18h0.01c0.06-0.11,0.17-0.2,0.35-0.2
		c0.15,0,0.26,0.09,0.31,0.22h0c0.03-0.06,0.08-0.11,0.13-0.14c0.07-0.05,0.14-0.08,0.24-0.08c0.15,0,0.36,0.1,0.36,0.48V-13h-0.19
		v-0.62c0-0.21-0.08-0.34-0.24-0.34c-0.11,0-0.2,0.08-0.24,0.18c-0.01,0.03-0.02,0.06-0.02,0.1V-13h-0.2v-0.66
		c0-0.18-0.08-0.3-0.23-0.3c-0.13,0-0.22,0.1-0.25,0.2c-0.01,0.03-0.02,0.06-0.02,0.1V-13h-0.19V-13.8z M16.11-13.51
		c0.01,0.27,0.18,0.38,0.38,0.38c0.14,0,0.23-0.03,0.31-0.06l0.03,0.14c-0.07,0.03-0.19,0.07-0.37,0.07c-0.34,0-0.54-0.22-0.54-0.56
		c0-0.33,0.2-0.59,0.52-0.59c0.36,0,0.45,0.32,0.45,0.52c0,0.04,0,0.07-0.01,0.09H16.11z M16.7-13.66c0-0.13-0.05-0.32-0.28-0.32
		c-0.2,0-0.29,0.19-0.31,0.32H16.7z M18.09-13.26c0,0.1,0,0.19,0.02,0.26h-0.18l-0.02-0.14h-0.01c-0.06,0.09-0.18,0.16-0.34,0.16
		c-0.22,0-0.34-0.16-0.34-0.32c0-0.27,0.24-0.41,0.66-0.41v-0.02c0-0.09-0.02-0.25-0.25-0.25c-0.1,0-0.21,0.03-0.29,0.08l-0.04-0.13
		c0.09-0.06,0.22-0.1,0.36-0.1c0.34,0,0.42,0.23,0.42,0.45V-13.26z M17.9-13.56c-0.22,0-0.46,0.03-0.46,0.25
		c0,0.13,0.09,0.19,0.19,0.19c0.14,0,0.24-0.09,0.27-0.18c0.01-0.02,0.01-0.04,0.01-0.06V-13.56z M18.6-13.76
		c0-0.13,0-0.24-0.01-0.34h0.17l0.01,0.22h0.01c0.05-0.15,0.17-0.24,0.3-0.24c0.02,0,0.04,0,0.06,0.01v0.19
		c-0.02,0-0.04-0.01-0.07-0.01c-0.14,0-0.24,0.11-0.27,0.26c0,0.03-0.01,0.06-0.01,0.09V-13h-0.2V-13.76z M19.82-14.36v0.26h0.29
		v0.15h-0.29v0.59c0,0.14,0.04,0.21,0.15,0.21c0.06,0,0.09,0,0.12-0.01L20.1-13c-0.04,0.02-0.1,0.03-0.18,0.03
		c-0.09,0-0.17-0.03-0.21-0.09c-0.06-0.06-0.08-0.16-0.08-0.29v-0.6h-0.17v-0.15h0.17v-0.2L19.82-14.36z M20.51-14.61h0.2v0.69h0
		c0.03-0.06,0.08-0.11,0.14-0.14c0.06-0.03,0.13-0.06,0.2-0.06c0.15,0,0.38,0.09,0.38,0.47V-13h-0.2v-0.63
		c0-0.18-0.07-0.33-0.25-0.33c-0.13,0-0.23,0.09-0.27,0.2c-0.01,0.03-0.01,0.06-0.01,0.1V-13h-0.2V-14.61z"/>
	<path class="st1" d="M19.91-28.26c0,0,0-0.01,0-0.02l0,0c-0.01-0.02-0.01-0.03-0.02-0.05l0,0c-0.09-0.27-0.31-0.72-0.83-1.07
		c-0.08-0.06-0.36-0.2-0.36-0.31c0.02-0.14,0.23-0.08,0.26,0.08c0.03,0.15,0.26,0.17,0.38,0.18c-0.25-0.72-1.17-1.08-1.21-1.1
		c-0.07-0.02-0.2-0.06-0.36-0.07l0,0c-0.14-0.01-0.15-0.05-0.11-0.08c0.07-0.02,0.1-0.06,0.1-0.06c-0.87-0.5-2.12-0.51-2.12-0.51h0
		c-0.12,0-0.23,0-0.34,0.02h0.01c-0.41,0.02-0.8,0.1-1.16,0.23c-0.56,0.21-1.01,0.5-1.41,0.93l-0.02,0.01c0,0-0.31,0.12-0.2,0.23
		c0.07,0.07,0.17,0.06,0.31,0.04c0.14-0.02,0.08-0.17,0.08-0.17c0.17-0.62,1.23-0.75,1.23-0.75c0,0,0.3-0.05,0.57,0.04l0,0
		c0,0,0.92,0.16,0.77,1.25v0c0,0.1-0.02,0.21-0.06,0.32c-0.17,0.49,0.2,0.69,0.38,0.81c0,0,0.18-0.06,0.25-0.16
		c0,0,0.01-0.01,0.02-0.03c0,0,0.22-0.22,0.34,0.45c0.12,0.68,0.58,1.17,1.45,1.17c0.31-0.54,0.01-1.28-0.16-1.45
		c-0.17-0.17-0.02-0.37-0.02-0.37l0,0c0-0.01,0.01-0.02,0.02-0.03c0.03-0.02,0.06-0.04,0.12-0.05c0.09-0.01,0.16,0.02,0.22,0.08
		c0.02,0.02,0.06,0.08,0.09,0.18c0,0.02,0.01,0.04,0.01,0.06c0,0,0.06,1.06,0.41,1.53c0.1,0.16,0.29,0.37,0.63,0.52l0,0
		c0,0,0.23,0.11,0.56,0.15c0.01,0,0.01,0,0.02,0v0c0.11,0.01,0.23,0.01,0.35,0C20.08-26.25,20.21-27.49,19.91-28.26z M20-25.59
		c-0.12-0.05-0.24,0-0.4,0.09c-0.16,0.09-0.02,0.25-0.02,0.25c-0.01,0.46-0.49,1-0.6,1.12c-1.1,1.09-1.71,0.97-1.71,0.97
		c-0.59-0.14-0.46-0.71-0.46-0.71l0,0c0-0.2,0.04-0.46,0.19-0.72c0.33-0.6-0.1-0.95-0.3-1.15c0,0-0.24,0.04-0.36,0.15
		c0,0-0.01,0.01-0.03,0.03c-0.01,0.01-0.35,0.24-0.35-0.67c0-0.92-0.48-1.67-1.62-1.87c0,0-0.06,0.06-0.14,0.18
		c-0.03,0.04-0.07,0.1-0.1,0.16c0,0.01-0.01,0.02-0.01,0.03c-0.03,0.05-0.05,0.1-0.08,0.16C13.71-26.85,14.08-26,14.08-26
		c0.03,0.05,0.06,0.08,0.06,0.08s0.15,0.13,0,0.29c-0.04,0.03-0.09,0.04-0.17,0.04c-0.11-0.01-0.21-0.07-0.27-0.16
		c-0.02-0.04-0.06-0.11-0.08-0.25c0-0.02,0-0.05,0-0.09c0,0,0.17-1.4-0.18-2.1c-0.14-0.33-0.5-0.85-1.4-1.15
		c-0.33,0.48-0.57,1.02-0.7,1.61c-0.04,0.29-0.06,0.62-0.04,1l0.01,0c0.04,0.36,0.21,1.04,0.85,1.66c0.09,0.1,0.42,0.34,0.4,0.5
		c-0.05,0.18-0.31,0.04-0.32-0.16c-0.01-0.2-0.31-0.29-0.46-0.32c-0.06-0.01-0.09-0.02-0.09-0.02c0.02,0.18,0.07,0.35,0.15,0.5
		c0.08,0.13,0.16,0.26,0.25,0.39c0.29,0.36,0.68,0.64,0.98,0.82c0.01,0.01,0.32,0.2,0.72,0.26c0,0,0.14,0.02,0.07,0.07
		c-0.01,0.01-0.01,0.01-0.02,0.02c-0.04,0.01-0.06,0.08-0.07,0.09c0,0,0,0,0,0c-0.03,0.11,0.07,0.16,0.14,0.21
		c0.01,0.01,0.02,0.01,0.04,0.02c0.54,0.24,1.14,0.37,1.77,0.37c0.54,0,1.06-0.1,1.54-0.28h0c0.22-0.07,0.43-0.17,0.61-0.28
		c0,0,0,0,0.01,0h0c0.39-0.22,0.66-0.45,0.66-0.45c0.6-0.52,1.02-1.1,1.32-1.82l0.02-0.03C19.86-25.2,20.18-25.5,20-25.59z"/>
</g>
<g class="st0">
	<rect x="-10.38" y="41.12" class="st1" width="52.16" height="22.48"/>
	<g class="st2">
		<path class="st3" d="M10.38,58.19h0.42l-1.31-1.43l0.11-0.02c0.23-0.05,0.42-0.13,0.53-0.24c0.15-0.14,0.22-0.3,0.22-0.5
			c0-0.17-0.06-0.31-0.17-0.43c-0.12-0.12-0.26-0.2-0.45-0.26c-0.18-0.05-0.38-0.05-0.67-0.05H8.43l0,2.93l0.45,0l0-1.38h0.09
			l0.15,0L10.38,58.19z M9.18,56.64c-0.07,0.01-0.14,0-0.21,0H8.88v-1.21c0.06,0,0.11-0.01,0.15-0.01c0.35,0,0.54,0.05,0.63,0.15
			c0.1,0.11,0.15,0.27,0.15,0.46c0,0.11-0.01,0.21-0.04,0.28c-0.03,0.07-0.07,0.13-0.12,0.18c-0.05,0.04-0.11,0.08-0.19,0.1
			C9.37,56.62,9.3,56.63,9.18,56.64 M17.17,58.19h0.42l-1.31-1.43l0.11-0.02c0.23-0.05,0.42-0.13,0.53-0.24
			c0.15-0.14,0.23-0.3,0.23-0.5c0-0.17-0.06-0.31-0.17-0.43c-0.11-0.12-0.26-0.2-0.45-0.26c-0.18-0.05-0.38-0.05-0.67-0.05h-0.63
			l0,2.93l0.45,0v-1.38h0.09l0.16,0L17.17,58.19z M15.97,56.64c-0.07,0.01-0.14,0-0.21,0h-0.09v-1.21c0.06,0,0.11-0.01,0.15-0.01
			c0.35,0,0.54,0.05,0.63,0.15c0.1,0.11,0.15,0.27,0.15,0.46c0,0.11-0.01,0.21-0.04,0.28c-0.03,0.07-0.07,0.13-0.12,0.18
			c-0.05,0.04-0.11,0.08-0.19,0.1C16.16,56.62,16.09,56.63,15.97,56.64 M1.32,55.26l-0.19,0l-1.27,2.93h0.31l0.44-1.06h1.06
			l0.44,1.06h0.46L1.32,55.26z M0.72,56.86l0.43-1.02l0.42,1.02H0.72z M7.81,55.26H7.54l0,1.64c0,0.22-0.01,0.38-0.02,0.47
			c-0.01,0.1-0.06,0.19-0.13,0.28c-0.07,0.09-0.18,0.17-0.32,0.23c-0.15,0.06-0.21,0.09-0.4,0.09c-0.23,0.01-0.39-0.06-0.53-0.14
			c-0.12-0.06-0.26-0.2-0.28-0.32c-0.03-0.13-0.05-0.34-0.05-0.64l0-1.62H5.38v1.9c0,0.23,0.04,0.42,0.12,0.56
			c0.08,0.14,0.22,0.25,0.41,0.34c0.19,0.09,0.42,0.13,0.68,0.13c0.23,0,0.43-0.04,0.6-0.1c0.18-0.07,0.31-0.16,0.41-0.27
			c0.1-0.12,0.16-0.24,0.18-0.36c0.02-0.12,0.03-0.3,0.03-0.54L7.81,55.26z M25.57,55.26H25.3l0,1.64c0,0.22-0.01,0.38-0.03,0.47
			c-0.02,0.1-0.06,0.19-0.13,0.28c-0.07,0.09-0.17,0.17-0.32,0.23c-0.15,0.06-0.21,0.09-0.4,0.09c-0.23,0.01-0.39-0.06-0.53-0.14
			c-0.12-0.06-0.26-0.2-0.28-0.32c-0.03-0.13-0.04-0.34-0.04-0.64l0-1.62h-0.45v1.9c0,0.23,0.04,0.42,0.12,0.56
			c0.08,0.14,0.22,0.25,0.41,0.34c0.19,0.09,0.42,0.13,0.68,0.13c0.23,0,0.43-0.04,0.6-0.1c0.18-0.07,0.31-0.16,0.41-0.27
			c0.1-0.12,0.16-0.24,0.18-0.36c0.02-0.12,0.03-0.3,0.03-0.54L25.57,55.26z M-0.84,58.18l0.2,0v-2.92h-0.27v2.12l-1.79-2.12h-0.41
			v2.92h0.27l0-2.41L-0.84,58.18z M2.39,55.53h1.07v2.66l0.44,0v-2.66h1.06v-0.26H2.39 M30.74,58.19l0.01-0.26h-1.32v-2.66h-0.45
			l0,2.93L30.74,58.19z M12.97,55.53v-0.26h-1.71v2.93h1.83v-0.26l-1.37,0v-1.07h1.04v-0.26h-1.04v-1.07L12.97,55.53z M19.87,55.53
			v-0.26h-1.71v2.93h1.82v-0.26l-1.37,0v-1.07h1.04v-0.26h-1.04v-1.07L19.87,55.53z M27.67,56.65c0.16-0.08,0.28-0.16,0.34-0.25
			c0.07-0.12,0.11-0.25,0.11-0.41c0-0.17-0.05-0.32-0.16-0.44c-0.1-0.11-0.25-0.19-0.43-0.24c-0.15-0.04-0.34-0.04-0.61-0.05
			l-0.67,0v2.92l0.83,0c0.36,0,0.64-0.04,0.8-0.11c0.16-0.06,0.28-0.16,0.36-0.28c0.08-0.13,0.13-0.27,0.13-0.43
			c0-0.19-0.06-0.34-0.19-0.47C28.03,56.76,27.8,56.68,27.67,56.65 M26.71,55.41c0.04,0,0.08,0,0.16,0c0.25,0,0.43,0.05,0.55,0.14
			c0.11,0.1,0.16,0.25,0.16,0.46c0,0.14-0.03,0.25-0.1,0.35c-0.06,0.09-0.14,0.15-0.24,0.18c-0.1,0.03-0.23,0.05-0.39,0.05h-0.14
			V55.41z M27.67,57.76c-0.07,0.1-0.17,0.16-0.27,0.2c-0.11,0.03-0.27,0.05-0.45,0.05h-0.23v-1.25h0.25c0.05,0,0.1,0,0.16,0
			c0.21,0.02,0.37,0.07,0.47,0.15c0.13,0.1,0.19,0.27,0.19,0.5C27.78,57.54,27.74,57.66,27.67,57.76 M31.27,58.19h0.45v-2.92h-0.45
			V58.19z M22.05,55.31c-0.16-0.04-0.37-0.05-0.65-0.05l-0.72,0v2.93h0.47v-1.34h0.31c0.36,0,0.61-0.03,0.75-0.1
			c0.15-0.06,0.26-0.16,0.34-0.28c0.08-0.13,0.12-0.27,0.12-0.43c0-0.19-0.06-0.34-0.17-0.47C22.37,55.45,22.23,55.36,22.05,55.31
			 M22.01,56.43c-0.07,0.1-0.15,0.16-0.26,0.2c-0.11,0.03-0.25,0.05-0.42,0.05h-0.19v-1.26c0.05,0,0.12-0.01,0.2-0.01
			c0.27,0,0.47,0.05,0.59,0.16c0.12,0.1,0.17,0.27,0.17,0.49C22.12,56.21,22.08,56.33,22.01,56.43 M34.51,55.59v0.29l-0.06-0.08
			c-0.05-0.06-0.1-0.12-0.16-0.16c-0.19-0.14-0.42-0.21-0.66-0.21c-0.3,0-0.54,0.11-0.72,0.34c-0.18,0.23-0.27,0.56-0.27,0.99
			c0,0.4,0.1,0.71,0.29,0.93c0.19,0.21,0.44,0.32,0.72,0.32c0.15,0,0.31-0.04,0.48-0.11c0.13-0.05,0.23-0.15,0.32-0.27l0.06-0.08
			v0.29l-0.01,0.01c-0.25,0.23-0.57,0.34-0.93,0.34c-0.45,0-0.7-0.14-0.96-0.39c-0.28-0.26-0.42-0.6-0.42-1.03
			c0-0.28,0.06-0.54,0.19-0.79c0.12-0.23,0.29-0.41,0.54-0.55c0.23-0.13,0.39-0.18,0.65-0.18c0.22,0,0.42,0.04,0.61,0.13
			c0.13,0.06,0.24,0.13,0.32,0.2L34.51,55.59z"/>
		<path class="st3" d="M10.1,61.5v-0.95H9.94v-0.15h0.15v-0.05c0-0.16,0.03-0.29,0.13-0.38c0.08-0.07,0.17-0.1,0.27-0.1
			c0.07,0,0.13,0.02,0.17,0.03l-0.03,0.15c-0.03-0.01-0.07-0.02-0.13-0.02c-0.17,0-0.21,0.15-0.21,0.32v0.06h0.26v0.15H10.3v0.95
			H10.1z M10.92,60.74c0-0.13,0-0.24-0.01-0.34h0.17l0.01,0.21h0.01c0.05-0.15,0.17-0.24,0.31-0.24c0.02,0,0.04,0,0.06,0.01v0.19
			c-0.02,0-0.04-0.01-0.07-0.01c-0.14,0-0.24,0.11-0.27,0.26c0,0.03-0.01,0.06-0.01,0.09v0.59h-0.2V60.74z M12.82,60.94
			c0,0.41-0.28,0.58-0.55,0.58c-0.3,0-0.53-0.22-0.53-0.57c0-0.37,0.24-0.58,0.55-0.58C12.61,60.37,12.82,60.6,12.82,60.94z
			 M11.95,60.95c0,0.24,0.14,0.42,0.34,0.42c0.19,0,0.33-0.18,0.33-0.43c0-0.19-0.09-0.42-0.33-0.42
			C12.05,60.52,11.95,60.74,11.95,60.95z M13.26,60.69c0-0.11,0-0.21-0.01-0.3h0.17l0.01,0.18h0.01c0.06-0.11,0.16-0.2,0.35-0.2
			c0.15,0,0.26,0.09,0.31,0.22h0c0.03-0.06,0.08-0.11,0.12-0.14c0.07-0.05,0.14-0.08,0.24-0.08c0.14,0,0.36,0.1,0.36,0.48v0.65h-0.2
			v-0.62c0-0.21-0.08-0.34-0.24-0.34c-0.11,0-0.2,0.08-0.24,0.18c-0.01,0.03-0.02,0.06-0.02,0.1v0.68h-0.2v-0.66
			c0-0.17-0.08-0.3-0.23-0.3c-0.13,0-0.22,0.1-0.25,0.2c-0.01,0.03-0.01,0.06-0.01,0.1v0.66h-0.2V60.69z M16.11,60.98
			c0,0.27,0.18,0.38,0.38,0.38c0.15,0,0.23-0.02,0.3-0.06l0.04,0.14c-0.07,0.03-0.19,0.07-0.37,0.07c-0.34,0-0.54-0.23-0.54-0.56
			c0-0.33,0.2-0.59,0.51-0.59c0.36,0,0.46,0.32,0.46,0.52c0,0.04-0.01,0.07-0.01,0.09H16.11z M16.7,60.84
			c0-0.13-0.05-0.33-0.28-0.33c-0.2,0-0.29,0.19-0.31,0.33H16.7z M18.1,61.23c0,0.09,0,0.19,0.02,0.26h-0.18l-0.02-0.14h-0.01
			c-0.06,0.09-0.18,0.17-0.34,0.17c-0.22,0-0.34-0.16-0.34-0.32c0-0.27,0.24-0.41,0.66-0.41v-0.02c0-0.09-0.03-0.25-0.25-0.25
			c-0.1,0-0.21,0.03-0.29,0.08l-0.04-0.13c0.09-0.06,0.22-0.1,0.36-0.1c0.34,0,0.42,0.23,0.42,0.45V61.23z M17.9,60.93
			c-0.22,0-0.46,0.04-0.46,0.25c0,0.13,0.08,0.19,0.19,0.19c0.14,0,0.23-0.09,0.26-0.19c0.01-0.02,0.01-0.04,0.01-0.06V60.93z
			 M18.6,60.74c0-0.13,0-0.24-0.01-0.34h0.17l0.01,0.21h0.01c0.05-0.15,0.17-0.24,0.3-0.24c0.02,0,0.04,0,0.05,0.01v0.19
			c-0.02,0-0.04-0.01-0.07-0.01c-0.14,0-0.24,0.11-0.27,0.26c0,0.03-0.01,0.06-0.01,0.09v0.59h-0.2V60.74z M19.82,60.13v0.26h0.29
			v0.15h-0.29v0.59c0,0.14,0.04,0.21,0.15,0.21c0.05,0,0.09,0,0.12-0.01l0.01,0.15c-0.04,0.02-0.1,0.03-0.18,0.03
			c-0.09,0-0.17-0.03-0.22-0.09c-0.06-0.06-0.08-0.16-0.08-0.29v-0.6h-0.17v-0.15h0.17v-0.2L19.82,60.13z M20.51,59.88h0.2v0.69
			h0.01c0.03-0.06,0.08-0.11,0.14-0.14c0.06-0.03,0.13-0.06,0.2-0.06c0.15,0,0.38,0.09,0.38,0.47v0.65h-0.2v-0.63
			c0-0.18-0.07-0.33-0.25-0.33c-0.13,0-0.23,0.09-0.27,0.2c-0.01,0.03-0.01,0.06-0.01,0.1v0.66h-0.2V59.88z"/>
		<path class="st3" d="M19.91,46.23c0-0.01,0-0.01,0-0.02l0,0c-0.01-0.01-0.01-0.03-0.02-0.04l0,0c-0.09-0.27-0.31-0.72-0.83-1.07
			c-0.08-0.06-0.36-0.2-0.36-0.31c0.01-0.14,0.23-0.08,0.26,0.08c0.03,0.15,0.27,0.17,0.38,0.18c-0.25-0.72-1.17-1.09-1.22-1.1
			c-0.07-0.02-0.2-0.06-0.35-0.08l0,0c-0.14-0.01-0.15-0.05-0.11-0.08c0.07-0.02,0.1-0.06,0.1-0.06c-0.87-0.5-2.13-0.51-2.13-0.51
			l0,0c-0.12,0-0.23,0-0.34,0.02h0.01c-0.41,0.02-0.8,0.1-1.17,0.23c-0.56,0.21-1.01,0.5-1.41,0.93L12.7,44.4
			c0,0-0.31,0.12-0.2,0.23c0.07,0.07,0.17,0.06,0.31,0.04c0.14-0.02,0.08-0.17,0.08-0.17c0.17-0.62,1.23-0.75,1.23-0.75
			c0,0,0.3-0.05,0.57,0.04l0,0c0,0,0.92,0.16,0.77,1.25l0,0c0,0.1-0.02,0.21-0.06,0.32c-0.17,0.49,0.2,0.69,0.38,0.81
			c0,0,0.17-0.06,0.24-0.16c0,0,0.01-0.01,0.02-0.02c0-0.01,0.22-0.22,0.35,0.45c0.12,0.68,0.58,1.17,1.45,1.17
			c0.31-0.54,0-1.29-0.16-1.45C17.5,46,17.64,45.8,17.64,45.8l0,0c0.01-0.01,0.01-0.02,0.02-0.03c0.03-0.02,0.06-0.04,0.12-0.05
			c0.08-0.01,0.16,0.02,0.22,0.08c0.02,0.02,0.06,0.08,0.09,0.18c0,0.02,0.01,0.04,0.01,0.07c0,0,0.06,1.06,0.41,1.53
			c0.1,0.16,0.29,0.37,0.63,0.52l0,0c0,0,0.23,0.11,0.56,0.15c0.01,0,0.02,0,0.02,0l0,0c0.11,0.01,0.23,0.01,0.35,0
			C20.08,48.25,20.21,47,19.91,46.23z M20,48.91c-0.12-0.06-0.24,0-0.4,0.09c-0.16,0.09-0.02,0.25-0.02,0.25
			c-0.01,0.46-0.49,1-0.6,1.12c-1.1,1.09-1.71,0.97-1.71,0.97c-0.59-0.14-0.46-0.71-0.46-0.71l0,0c0-0.2,0.04-0.46,0.19-0.72
			c0.33-0.6-0.1-0.95-0.3-1.15c0,0-0.24,0.04-0.36,0.15c0,0-0.01,0.01-0.03,0.03c-0.01,0-0.35,0.24-0.35-0.67
			c0-0.92-0.48-1.67-1.62-1.87c0,0-0.07,0.06-0.14,0.18c-0.03,0.04-0.07,0.1-0.1,0.16c-0.01,0.01-0.01,0.02-0.02,0.03
			c-0.03,0.05-0.05,0.1-0.08,0.16c-0.29,0.73,0.07,1.57,0.07,1.57c0.03,0.05,0.05,0.07,0.05,0.07s0.15,0.13,0,0.29
			c-0.04,0.02-0.09,0.04-0.17,0.03c-0.11,0-0.2-0.07-0.27-0.16c-0.02-0.04-0.06-0.12-0.08-0.26c0-0.02,0-0.05,0-0.08
			c0,0,0.17-1.41-0.18-2.1c-0.14-0.33-0.5-0.86-1.39-1.15c-0.33,0.48-0.57,1.02-0.7,1.61c-0.04,0.29-0.06,0.62-0.04,1l0.01-0.01
			c0.04,0.36,0.2,1.04,0.85,1.66c0.09,0.1,0.42,0.34,0.4,0.5c-0.05,0.18-0.32,0.05-0.32-0.16c-0.01-0.2-0.31-0.29-0.46-0.32
			c-0.05-0.01-0.09-0.02-0.09-0.02c0.02,0.18,0.07,0.35,0.15,0.5c0.08,0.13,0.16,0.26,0.25,0.39c0.29,0.36,0.68,0.64,0.97,0.82
			c0.01,0.01,0.33,0.2,0.72,0.26c0,0,0.14,0.02,0.07,0.07c0,0-0.01,0.01-0.02,0.02c-0.04,0.01-0.06,0.08-0.06,0.09c0,0,0,0,0,0.01
			c-0.03,0.1,0.07,0.15,0.15,0.21c0.01,0.01,0.02,0.01,0.03,0.02c0.54,0.23,1.14,0.37,1.77,0.37c0.54,0,1.06-0.1,1.54-0.28h0
			c0.22-0.07,0.43-0.17,0.61-0.28c0,0,0.01,0,0.01,0h0c0.39-0.22,0.66-0.45,0.66-0.45c0.6-0.52,1.02-1.1,1.32-1.82l0.02-0.02
			C19.86,49.29,20.18,48.99,20,48.91z"/>
	</g>
</g>
<g class="st0">
	<g class="st2">
		<g>
			<path class="st4" d="M13.1,2.34l0.11-0.02c0.23-0.05,0.41-0.13,0.53-0.24c0.15-0.14,0.22-0.3,0.22-0.5
				c0-0.17-0.06-0.31-0.17-0.43c-0.12-0.12-0.26-0.2-0.45-0.26c-0.18-0.05-0.38-0.05-0.67-0.05l-0.16,0l-0.44,0h-0.04v0.62l0,0.13
				v1.39l0,0.15l0.01,0.6v0.03h0.45V3.73l-0.01-0.58c0-0.05,0-0.11,0-0.17v-0.6h0.09l0.15,0l1.24,1.37l0.01,0.01h0.42l-0.05-0.06
				L13.1,2.34z M12.79,2.22c-0.07,0-0.14,0-0.21,0h-0.09V1.01c0.05,0,0.11-0.01,0.15-0.01c0.34,0,0.53,0.05,0.63,0.15
				c0.1,0.11,0.15,0.27,0.15,0.46c0,0.11-0.01,0.21-0.04,0.28c-0.03,0.07-0.07,0.13-0.12,0.18c-0.05,0.04-0.12,0.08-0.2,0.1
				C12.98,2.2,12.91,2.21,12.79,2.22 M5.94,3.18L5.9,3.1L4.94,0.86L4.93,0.84H4.9l-0.05,0l-0.09,0H4.74L4.73,0.86L3.48,3.72
				L3.46,3.76h0.05l0.13,0h0.02v0h0.11l0.01-0.02L4.22,2.7h1.06l0.43,1.05l0.01,0.02h0.46L6.16,3.72L5.94,3.18z M4.33,2.44
				l0.43-1.02l0.42,1.02H4.33z M11.15,1.43c0,0.03,0,0.06,0,0.1v0.95c0,0.22-0.01,0.38-0.03,0.47c-0.01,0.1-0.06,0.19-0.12,0.28
				c-0.07,0.09-0.18,0.17-0.32,0.23c-0.15,0.06-0.21,0.09-0.4,0.09C10.06,3.56,9.9,3.49,9.76,3.42C9.64,3.36,9.5,3.22,9.48,3.11
				C9.44,2.98,9.43,2.76,9.43,2.46V1.58c0-0.07,0-0.13,0-0.19V0.84H8.99v1.9c0,0.23,0.04,0.42,0.12,0.56
				c0.08,0.14,0.22,0.25,0.41,0.34C9.7,3.72,9.93,3.77,10.2,3.77c0.23,0,0.43-0.03,0.6-0.1c0.18-0.07,0.31-0.16,0.41-0.27
				c0.1-0.12,0.16-0.24,0.18-0.36c0.02-0.12,0.03-0.3,0.03-0.54V1.57c0-0.04,0-0.08,0-0.12V0.87V0.84h-0.27V1.43z M2.96,0.84H2.69
				v2.12l-1.78-2.1L0.9,0.84H0.66l-0.03,0H0.49v2.92h0.17v0h0.1V3.22c0-0.04,0-0.08,0-0.12V1.36l2,2.39l0.01,0.01h0
				c0,0,0.02,0,0.02,0h0.08h0.04l0.06,0L2.96,3.75V0.84z M6,0.87l0,0.2v0.03h1.07v2.66H7.5V3.25l0-0.17V1.11h0.34h0.03h0.69V0.84H6
				V0.87z M19.89,2.34L20,2.32c0.23-0.05,0.42-0.13,0.53-0.24c0.15-0.14,0.22-0.3,0.22-0.5c0-0.17-0.06-0.31-0.17-0.43
				c-0.11-0.12-0.26-0.2-0.44-0.26c-0.18-0.05-0.38-0.05-0.68-0.05l-0.16,0l-0.44,0h-0.03l0,0.04v0.59c0,0.04,0,0.09,0,0.13v1.39
				l0,0.15l0.01,0.6v0.03h0.45V3.73l-0.01-0.58c0-0.05,0-0.1,0-0.17v-0.6h0.08h0h0.01l0.15,0l1.24,1.37l0.01,0.01h0.42l-0.05-0.06
				L19.89,2.34z M19.58,2.22c-0.08,0-0.14,0-0.21,0h-0.09V1.01c0.05,0,0.11-0.01,0.15-0.01c0.35,0,0.54,0.05,0.63,0.15
				c0.1,0.11,0.15,0.27,0.15,0.46c0,0.11-0.02,0.21-0.04,0.28c-0.03,0.07-0.07,0.13-0.12,0.18c-0.05,0.04-0.12,0.08-0.2,0.1
				C19.77,2.2,19.7,2.21,19.58,2.22 M33.68,3.5h-0.23c-0.04,0-0.07,0-0.11,0h-0.31V3.26c0-0.06,0-0.12,0-0.18v-1.5
				c0-0.07,0-0.13,0-0.19V0.84h-0.45l0,0.03l0,0.56l0,0.16v1.4c0,0.06,0,0.12,0,0.17v0.61h0.03l1.7,0h0.03V3.73l0-0.2V3.5h-0.03
				L33.68,3.5z M15.73,3.51l-0.4-0.01V2.44h1.01h0.03V2.17h-1.04V1.1h0.4l0.82,0h0.03V0.84h-1.71v0.68v0.11v1.35v0.11v0.68h1.82V3.5
				h-0.04L15.73,3.51z M31.28,2.23c0.17-0.08,0.28-0.16,0.34-0.25c0.07-0.12,0.11-0.25,0.11-0.4c0-0.17-0.05-0.32-0.16-0.44
				c-0.1-0.1-0.25-0.19-0.43-0.24c-0.15-0.04-0.34-0.04-0.61-0.05l-0.07,0l-0.49,0h-0.08h-0.04v2.93h0.04l0.4,0v0c0,0,0.03,0,0.03,0
				l0.03,0v0l0.33,0c0.36,0,0.63-0.04,0.8-0.11c0.16-0.06,0.28-0.16,0.36-0.28c0.08-0.13,0.13-0.27,0.13-0.43
				c0-0.19-0.06-0.34-0.19-0.47C31.64,2.34,31.41,2.26,31.28,2.23 M30.32,0.99c0.04,0,0.08,0,0.16,0c0.25,0,0.43,0.05,0.54,0.15
				c0.11,0.1,0.16,0.25,0.16,0.46c0,0.14-0.03,0.25-0.1,0.35c-0.06,0.09-0.14,0.15-0.24,0.18c-0.1,0.03-0.23,0.05-0.39,0.05h-0.14
				V0.99z M31.28,3.34c-0.07,0.1-0.17,0.16-0.27,0.2c-0.12,0.03-0.26,0.05-0.45,0.05h-0.23V2.33h0.25c0.05,0,0.1,0,0.16,0
				c0.21,0.02,0.37,0.07,0.47,0.15c0.13,0.1,0.19,0.27,0.19,0.5C31.39,3.12,31.35,3.24,31.28,3.34 M35.33,1.34v-0.5h-0.45v0.03v0.51
				c0,0.07,0,0.14,0,0.21v1.39c0,0.09,0,0.16,0,0.23v0.55h0.45V3.26c0-0.07-0.01-0.16-0.01-0.28V1.59
				C35.32,1.5,35.32,1.41,35.33,1.34 M22.63,3.5c0,0-0.31,0-0.4,0V2.43h1.01h0.03V2.17h-1.04V1.1h0.4l0.82,0h0.03V0.84h-1.71v2.92
				h1.82V3.5h-0.03L22.63,3.5z M25.66,0.9C25.5,0.85,25.29,0.85,25,0.84l-0.07,0l-0.62,0l-0.03,0v2.93h0.47V2.43h0.31
				c0.36,0,0.61-0.03,0.75-0.09c0.15-0.06,0.26-0.16,0.34-0.28c0.08-0.12,0.12-0.27,0.12-0.43c0-0.19-0.06-0.34-0.17-0.47
				C25.98,1.03,25.83,0.94,25.66,0.9 M25.62,2.01c-0.07,0.1-0.15,0.16-0.26,0.19c-0.1,0.03-0.25,0.05-0.42,0.05h-0.19V1
				c0.05,0,0.12-0.01,0.2-0.01c0.27,0,0.47,0.05,0.59,0.16c0.12,0.1,0.18,0.27,0.18,0.49C25.72,1.79,25.69,1.91,25.62,2.01
				 M28.91,1.43c0,0.04,0,0.07,0,0.1v0.95c0,0.21-0.01,0.38-0.03,0.47c-0.02,0.1-0.06,0.19-0.13,0.28
				c-0.07,0.09-0.17,0.17-0.32,0.23c-0.15,0.06-0.21,0.09-0.4,0.09c-0.23,0.01-0.39-0.06-0.53-0.14c-0.12-0.06-0.26-0.2-0.28-0.31
				c-0.03-0.13-0.04-0.34-0.04-0.64V0.84h-0.45v1.9c0,0.23,0.04,0.42,0.12,0.56c0.08,0.14,0.22,0.25,0.41,0.34
				c0.19,0.09,0.42,0.13,0.68,0.13c0.22,0,0.43-0.03,0.6-0.1c0.17-0.07,0.31-0.16,0.41-0.27c0.1-0.12,0.16-0.24,0.18-0.36
				c0.02-0.12,0.03-0.3,0.03-0.54V1.57c0-0.05,0-0.09,0-0.12V0.87V0.84h-0.26V1.43z"/>
			<path class="st4" d="M38.11,1.16c-0.09-0.07-0.19-0.14-0.32-0.2c-0.18-0.09-0.38-0.13-0.61-0.13c-0.27,0-0.43,0.04-0.65,0.18
				c-0.25,0.15-0.42,0.33-0.54,0.55C35.86,1.8,35.8,2.06,35.8,2.34c0,0.42,0.14,0.77,0.42,1.03c0.26,0.25,0.51,0.39,0.96,0.39
				c0.37,0,0.68-0.12,0.93-0.34l0.01-0.01V3.12L38.06,3.2c-0.09,0.12-0.2,0.21-0.32,0.27c-0.16,0.07-0.32,0.11-0.48,0.11
				c-0.29,0-0.53-0.11-0.72-0.32c-0.19-0.21-0.29-0.53-0.29-0.93c0-0.43,0.09-0.76,0.27-0.99C36.69,1.11,36.93,1,37.23,1
				c0.25,0,0.47,0.07,0.66,0.21c0.06,0.04,0.12,0.1,0.17,0.17l0.06,0.08V1.17L38.11,1.16z"/>
		</g>
	</g>
	<path class="st1" d="M-1.8,1.47c0,0,0-0.01,0-0.01L-1.8,1.47C-1.8,1.45-1.81,1.45-1.81,1.44l0,0c-0.05-0.16-0.18-0.41-0.48-0.61
		c-0.05-0.04-0.2-0.11-0.21-0.18c0.01-0.08,0.13-0.04,0.15,0.04c0.02,0.09,0.15,0.1,0.22,0.1c-0.14-0.41-0.67-0.62-0.69-0.63
		c-0.04-0.01-0.11-0.03-0.21-0.04h0c-0.08-0.01-0.08-0.03-0.06-0.05c0.04-0.01,0.06-0.04,0.06-0.04c-0.5-0.29-1.21-0.29-1.21-0.29
		l0,0c-0.07,0-0.13,0-0.19,0.01h0C-4.66-0.24-4.89-0.19-5.1-0.11c-0.32,0.12-0.58,0.28-0.81,0.53l-0.01,0.01
		c0,0-0.18,0.07-0.12,0.13c0.04,0.04,0.1,0.04,0.18,0.02c0.08-0.01,0.04-0.09,0.04-0.09c0.1-0.36,0.7-0.43,0.7-0.43
		s0.17-0.03,0.33,0.03l0,0c0,0,0.53,0.09,0.44,0.71l0,0c0,0.06-0.01,0.12-0.03,0.18c-0.1,0.28,0.11,0.39,0.21,0.46
		c0,0,0.1-0.03,0.14-0.09c0,0,0-0.01,0.01-0.01c0,0,0.13-0.13,0.2,0.26c0.07,0.39,0.33,0.67,0.83,0.67c0.18-0.31,0-0.73-0.09-0.83
		c-0.1-0.1-0.01-0.21-0.01-0.21h0c0,0,0-0.01,0.01-0.01c0.02-0.01,0.04-0.03,0.07-0.03c0.05-0.01,0.09,0.01,0.13,0.05
		c0.01,0.01,0.04,0.04,0.05,0.1c0,0.01,0,0.02,0,0.04c0,0,0.03,0.61,0.23,0.88c0.06,0.09,0.17,0.21,0.36,0.29l0,0
		c0,0,0.13,0.07,0.32,0.09c0,0,0.01,0,0.01,0l0,0c0.06,0.01,0.13,0.01,0.2,0C-1.69,2.63-1.62,1.91-1.8,1.47z M-1.74,3
		c-0.07-0.03-0.14,0-0.23,0.05C-2.07,3.1-1.98,3.19-1.98,3.19c-0.01,0.26-0.28,0.57-0.35,0.64C-2.96,4.46-3.3,4.39-3.3,4.39
		c-0.34-0.08-0.27-0.4-0.27-0.4l0,0c0-0.12,0.02-0.26,0.11-0.41c0.19-0.34-0.05-0.54-0.17-0.66c0,0-0.14,0.02-0.2,0.09
		c0,0-0.01,0.01-0.02,0.02c0,0-0.2,0.14-0.2-0.38c0-0.53-0.28-0.95-0.92-1.07c0,0-0.04,0.03-0.08,0.1C-5.08,1.69-5.1,1.72-5.12,1.76
		c0,0,0,0.01-0.01,0.01C-5.14,1.8-5.15,1.83-5.17,1.86c-0.17,0.41,0.04,0.9,0.04,0.9C-5.11,2.79-5.1,2.81-5.1,2.81s0.08,0.08,0,0.17
		c-0.02,0.01-0.05,0.02-0.1,0.02c-0.07,0-0.12-0.04-0.16-0.09C-5.37,2.88-5.39,2.83-5.4,2.75c0-0.01,0-0.03,0-0.05
		c0,0,0.1-0.8-0.1-1.2c-0.08-0.19-0.29-0.49-0.8-0.66c-0.19,0.27-0.33,0.58-0.4,0.92c-0.02,0.17-0.04,0.35-0.02,0.57l0.01,0
		c0.02,0.21,0.12,0.59,0.49,0.95C-6.18,3.34-5.99,3.48-6,3.57c-0.03,0.1-0.18,0.03-0.19-0.09c0-0.11-0.17-0.17-0.26-0.18
		C-6.48,3.28-6.5,3.28-6.5,3.28c0.01,0.1,0.04,0.2,0.08,0.29c0.04,0.08,0.09,0.15,0.14,0.22C-6.11,4-5.89,4.16-5.72,4.26
		c0.01,0,0.19,0.11,0.41,0.15c0,0,0.08,0.01,0.04,0.04c0,0-0.01,0.01-0.01,0.01C-5.3,4.47-5.32,4.51-5.32,4.51c0,0,0,0,0,0
		c-0.02,0.06,0.04,0.09,0.08,0.12c0.01,0,0.01,0.01,0.02,0.01C-4.9,4.78-4.56,4.85-4.2,4.85c0.31,0,0.61-0.06,0.88-0.16l0,0
		c0.13-0.04,0.25-0.1,0.35-0.16c0,0,0,0,0,0h0c0.22-0.12,0.38-0.26,0.38-0.26C-2.25,3.98-2,3.65-1.83,3.24l0.01-0.01
		C-1.83,3.22-1.64,3.05-1.74,3z"/>
</g>
<g class="st0">
	<rect x="-10.38" y="15.51" class="st1" width="52.16" height="22.43"/>
	<g class="st2">
		<g>
			<g>
				<path class="st3" d="M13.1,26.76l0.11-0.02c0.23-0.05,0.42-0.13,0.53-0.24c0.15-0.14,0.23-0.31,0.23-0.5
					c0-0.17-0.06-0.31-0.17-0.43c-0.11-0.12-0.26-0.2-0.45-0.25c-0.18-0.05-0.38-0.05-0.67-0.05h-0.16h-0.44h-0.04v0.62l0,0.13v1.39
					l0,0.15l0.01,0.6v0.03h0.45v-0.03l-0.01-0.58c0-0.06,0-0.11,0-0.17v-0.6h0.09l0.15,0l1.24,1.37l0.01,0.01h0.42l-0.05-0.06
					L13.1,26.76z M12.79,26.65c-0.07,0-0.14,0-0.21,0h-0.09v-1.21c0.05,0,0.11-0.01,0.15-0.01c0.35,0,0.54,0.04,0.63,0.15
					c0.1,0.11,0.15,0.27,0.15,0.46c0,0.11-0.01,0.21-0.04,0.28c-0.03,0.07-0.07,0.13-0.12,0.18c-0.05,0.04-0.12,0.08-0.2,0.1
					C12.98,26.62,12.91,26.64,12.79,26.65 M5.94,27.6L5.9,27.52l-0.97-2.24l-0.01-0.02H4.9H4.85l-0.09,0H4.74l-0.01,0.02l-1.24,2.86
					l-0.02,0.05h0.05l0.14,0h0.02v0h0.11l0.01-0.02l0.43-1.04h1.06l0.43,1.04l0.01,0.02h0.46l-0.02-0.05L5.94,27.6z M4.33,26.87
					l0.43-1.02l0.42,1.02H4.33z M11.15,25.86c0,0.03,0,0.07,0,0.1v0.95c0,0.21-0.01,0.38-0.03,0.47c-0.01,0.1-0.06,0.19-0.12,0.28
					c-0.07,0.09-0.18,0.17-0.32,0.23c-0.14,0.06-0.21,0.09-0.4,0.09c-0.23,0.01-0.39-0.06-0.53-0.14c-0.12-0.06-0.26-0.2-0.28-0.32
					c-0.03-0.13-0.05-0.34-0.05-0.64v-0.88c0-0.07,0-0.13,0-0.19v-0.55H8.99v1.9c0,0.23,0.04,0.42,0.12,0.56
					c0.08,0.14,0.22,0.25,0.41,0.34c0.19,0.09,0.42,0.13,0.68,0.13c0.23,0,0.43-0.04,0.6-0.1c0.18-0.07,0.31-0.16,0.41-0.27
					c0.1-0.12,0.16-0.24,0.18-0.36c0.02-0.12,0.03-0.3,0.03-0.54v-0.93c0-0.04,0-0.08,0-0.12V25.3v-0.03h-0.27V25.86z M2.96,25.27
					H2.69v2.12l-1.78-2.11L0.9,25.27H0.66H0.63H0.49v2.92h0.17v0h0.1v-0.54c0-0.04,0-0.08,0-0.12v-1.74l2,2.39l0.01,0.01h0
					c0,0,0.02,0,0.02,0h0.08h0.04h0.06l-0.01-0.01V25.27z M6,25.3l0,0.2v0.03h1.07v2.66h0.44v-0.51l0-0.17v-1.97h0.33h0.03h0.69
					v-0.27H6V25.3z M19.89,26.76L20,26.74c0.23-0.05,0.42-0.13,0.53-0.24c0.15-0.14,0.22-0.31,0.22-0.5c0-0.17-0.06-0.31-0.17-0.43
					c-0.11-0.12-0.26-0.2-0.44-0.25c-0.18-0.05-0.39-0.05-0.68-0.05H19.3h-0.44h-0.03l0,0.03v0.59c0,0.04,0,0.09,0,0.13v1.39l0,0.15
					l0.01,0.6v0.03h0.45v-0.03l-0.01-0.58c0-0.05,0-0.11,0-0.17v-0.6h0.08h0h0.01l0.15,0l1.24,1.37l0.01,0.01h0.42l-0.05-0.06
					L19.89,26.76z M19.59,26.65c-0.08,0-0.14,0-0.21,0h-0.09v-1.21c0.05,0,0.11-0.01,0.15-0.01c0.35,0,0.54,0.04,0.63,0.15
					c0.1,0.11,0.15,0.27,0.15,0.46c0,0.11-0.02,0.21-0.04,0.28c-0.03,0.07-0.07,0.13-0.12,0.18c-0.05,0.04-0.12,0.08-0.19,0.1
					C19.77,26.62,19.7,26.64,19.59,26.65 M33.68,27.93h-0.23c-0.04,0-0.07,0-0.11,0h-0.31v-0.24c0-0.06,0-0.12,0-0.18v-1.5
					c0-0.06,0-0.13,0-0.19v-0.56h-0.45l0,0.03l0,0.56l0,0.16v1.4c0,0.06,0,0.11,0,0.17v0.61h0.03l1.7,0h0.03v-0.03l0-0.2v-0.03
					h-0.03H33.68z M15.73,27.93l-0.41,0v-1.07h1.01h0.03V26.6h-1.04v-1.07h0.41l0.82,0h0.03v-0.27h-1.71v0.68v0.11v1.35v0.11v0.68
					h1.83v-0.26h-0.03L15.73,27.93z M31.28,26.65c0.17-0.08,0.28-0.16,0.34-0.25c0.07-0.12,0.11-0.25,0.11-0.41
					c0-0.17-0.05-0.32-0.16-0.44c-0.1-0.11-0.25-0.19-0.43-0.24c-0.15-0.04-0.34-0.04-0.61-0.05h-0.07h-0.49l-0.08,0h-0.03v2.93
					h0.03l0.4,0v0h0.03l0.03,0v0l0.33,0c0.36,0,0.63-0.04,0.8-0.11c0.16-0.06,0.28-0.16,0.36-0.28c0.08-0.13,0.13-0.27,0.13-0.43
					c0-0.19-0.06-0.35-0.19-0.47C31.64,26.77,31.41,26.69,31.28,26.65 M30.32,25.42c0.04,0,0.08-0.01,0.16-0.01
					c0.25,0,0.43,0.05,0.55,0.15c0.11,0.1,0.16,0.25,0.16,0.46c0,0.14-0.03,0.25-0.1,0.35c-0.06,0.09-0.14,0.15-0.24,0.18
					c-0.1,0.03-0.23,0.04-0.39,0.04h-0.14V25.42z M31.28,27.77c-0.08,0.1-0.17,0.16-0.28,0.2c-0.11,0.03-0.26,0.05-0.45,0.05h-0.23
					v-1.26h0.25c0.05,0,0.1,0,0.16,0c0.21,0.02,0.37,0.07,0.47,0.15c0.13,0.1,0.19,0.27,0.19,0.5
					C31.39,27.55,31.35,27.67,31.28,27.77 M35.33,25.77v-0.5h-0.45v0.04v0.51c0,0.07,0,0.14,0,0.21v1.39c0,0.09,0,0.16,0,0.23v0.55
					h0.45v-0.51c0-0.07-0.01-0.16-0.01-0.28v-1.39C35.32,25.93,35.33,25.84,35.33,25.77 M22.63,27.93c0,0-0.31,0-0.4-0.01v-1.06
					h1.01h0.03V26.6h-1.04v-1.07h0.4l0.82,0h0.03v-0.27h-1.71v2.92h1.82v-0.26h-0.03L22.63,27.93z M25.66,25.32
					c-0.16-0.05-0.37-0.05-0.65-0.06h-0.07l-0.62,0l-0.03,0v2.93h0.47v-1.34h0.31c0.36,0,0.61-0.03,0.76-0.09
					c0.15-0.06,0.26-0.16,0.34-0.28c0.08-0.13,0.12-0.27,0.12-0.43c0-0.19-0.06-0.34-0.17-0.47C25.98,25.46,25.84,25.37,25.66,25.32
					 M25.62,26.44c-0.07,0.1-0.16,0.16-0.26,0.19c-0.11,0.03-0.25,0.05-0.42,0.05h-0.19v-1.26c0.05,0,0.12-0.01,0.21-0.01
					c0.27,0,0.47,0.05,0.59,0.16c0.12,0.1,0.18,0.27,0.18,0.5C25.72,26.22,25.69,26.34,25.62,26.44 M28.91,25.86
					c0,0.04,0,0.07,0,0.1v0.95c0,0.21-0.01,0.38-0.03,0.47c-0.02,0.1-0.06,0.19-0.13,0.28c-0.07,0.09-0.17,0.17-0.31,0.23
					c-0.15,0.06-0.21,0.09-0.4,0.09c-0.23,0.01-0.39-0.06-0.53-0.14c-0.12-0.06-0.26-0.2-0.28-0.32c-0.03-0.13-0.04-0.34-0.04-0.64
					v-1.62h-0.45v1.9c0,0.23,0.04,0.42,0.12,0.56c0.08,0.14,0.22,0.25,0.41,0.34c0.19,0.09,0.42,0.13,0.68,0.13
					c0.22,0,0.43-0.04,0.6-0.1c0.17-0.07,0.31-0.16,0.41-0.27c0.1-0.12,0.16-0.24,0.18-0.36c0.02-0.12,0.03-0.3,0.03-0.54v-0.93
					c0-0.05,0-0.09,0-0.12V25.3v-0.03h-0.26V25.86z"/>
				<path class="st3" d="M38.11,25.58c-0.09-0.07-0.19-0.14-0.32-0.2c-0.18-0.09-0.38-0.13-0.61-0.13c-0.27,0-0.43,0.04-0.65,0.18
					c-0.25,0.14-0.42,0.33-0.54,0.55c-0.13,0.25-0.19,0.51-0.19,0.79c0,0.42,0.14,0.77,0.42,1.03c0.26,0.25,0.51,0.39,0.96,0.39
					c0.37,0,0.68-0.12,0.93-0.34l0.01-0.01v-0.29l-0.06,0.08c-0.09,0.12-0.2,0.21-0.32,0.27c-0.16,0.07-0.32,0.1-0.48,0.1
					c-0.29,0-0.53-0.1-0.72-0.32c-0.19-0.21-0.29-0.53-0.29-0.93c0-0.43,0.09-0.76,0.27-0.99c0.17-0.23,0.42-0.34,0.71-0.34
					c0.25,0,0.47,0.07,0.66,0.21c0.06,0.04,0.12,0.1,0.17,0.16l0.06,0.08v-0.29L38.11,25.58z"/>
			</g>
		</g>
		<path class="st3" d="M-1.79,25.9c0,0,0-0.01,0-0.01L-1.79,25.9c-0.01-0.02-0.01-0.03-0.01-0.03l0,0
			c-0.05-0.15-0.17-0.41-0.48-0.61c-0.05-0.04-0.2-0.11-0.21-0.18c0.01-0.08,0.13-0.04,0.15,0.04c0.02,0.09,0.15,0.1,0.22,0.1
			c-0.14-0.41-0.67-0.62-0.7-0.63c-0.04-0.01-0.11-0.04-0.2-0.04h0c-0.08-0.01-0.08-0.03-0.06-0.05c0.04-0.01,0.06-0.04,0.06-0.04
			c-0.5-0.29-1.21-0.29-1.21-0.29h0c-0.07,0-0.13,0-0.19,0.01h0.01c-0.23,0.01-0.46,0.06-0.67,0.13c-0.32,0.12-0.58,0.28-0.81,0.53
			l-0.01,0.01c0,0-0.18,0.07-0.12,0.13c0.04,0.04,0.1,0.04,0.18,0.03c0.08-0.01,0.04-0.09,0.04-0.09c0.1-0.35,0.7-0.43,0.7-0.43
			s0.17-0.03,0.33,0.02l0,0c0,0,0.53,0.09,0.44,0.71l0,0c0,0.06-0.01,0.12-0.03,0.18c-0.1,0.28,0.11,0.39,0.21,0.46
			c0,0,0.1-0.03,0.14-0.09c0,0,0-0.01,0.01-0.02c0,0,0.13-0.13,0.2,0.26c0.07,0.39,0.33,0.67,0.83,0.67c0.18-0.31,0-0.74-0.09-0.83
			c-0.1-0.1-0.01-0.21-0.01-0.21h0c0-0.01,0-0.01,0.01-0.02c0.01-0.01,0.04-0.02,0.07-0.03c0.05-0.01,0.09,0.01,0.13,0.05
			c0.01,0.01,0.04,0.05,0.05,0.1c0,0.01,0,0.02,0.01,0.04c0,0,0.03,0.61,0.23,0.88c0.06,0.09,0.17,0.21,0.36,0.29l0,0
			c0,0,0.13,0.06,0.32,0.08c0,0,0.01,0,0.01,0h0c0.06,0.01,0.13,0.01,0.2,0C-1.69,27.05-1.62,26.34-1.79,25.9z M-1.74,27.43
			c-0.07-0.03-0.14,0-0.23,0.05c-0.09,0.05-0.01,0.14-0.01,0.14c-0.01,0.26-0.29,0.57-0.35,0.64c-0.63,0.62-0.98,0.55-0.98,0.55
			c-0.34-0.08-0.26-0.4-0.26-0.4l0,0c0-0.12,0.02-0.26,0.11-0.41c0.19-0.34-0.05-0.54-0.17-0.66c0,0-0.14,0.02-0.2,0.09
			c0,0-0.01,0.01-0.02,0.02c0,0-0.2,0.13-0.2-0.39c0-0.52-0.28-0.95-0.93-1.07c0,0-0.04,0.04-0.08,0.1
			c-0.02,0.03-0.04,0.06-0.06,0.09c0,0,0,0.01-0.01,0.01c-0.01,0.03-0.03,0.06-0.05,0.09c-0.17,0.42,0.04,0.9,0.04,0.9
			c0.02,0.03,0.03,0.04,0.03,0.04s0.08,0.08,0,0.16c-0.02,0.01-0.05,0.02-0.1,0.02c-0.07,0-0.12-0.04-0.16-0.09
			c-0.01-0.02-0.04-0.07-0.04-0.15c0-0.01,0-0.03,0-0.05c0,0,0.1-0.8-0.1-1.2c-0.08-0.19-0.28-0.49-0.8-0.66
			c-0.19,0.27-0.33,0.58-0.4,0.92c-0.02,0.17-0.03,0.35-0.02,0.57l0,0c0.02,0.21,0.12,0.59,0.49,0.95c0.05,0.06,0.24,0.2,0.23,0.28
			c-0.03,0.1-0.18,0.03-0.19-0.09c0-0.12-0.17-0.17-0.26-0.18c-0.03-0.01-0.05-0.01-0.05-0.01c0.01,0.1,0.04,0.2,0.08,0.29
			c0.04,0.08,0.09,0.15,0.14,0.22c0.17,0.21,0.39,0.37,0.56,0.47c0,0,0.19,0.11,0.41,0.15c0,0,0.08,0.01,0.04,0.04
			c0,0,0,0.01-0.01,0.01c-0.02,0.01-0.04,0.05-0.04,0.05c0,0,0,0,0,0c-0.02,0.06,0.04,0.09,0.08,0.12c0.01,0.01,0.01,0.01,0.02,0.01
			c0.31,0.13,0.65,0.21,1.01,0.21c0.31,0,0.61-0.06,0.88-0.16l0,0c0.12-0.04,0.24-0.1,0.35-0.16c0,0,0,0,0,0h0
			c0.22-0.13,0.38-0.26,0.38-0.26c0.34-0.3,0.58-0.63,0.75-1.04l0-0.01C-1.83,27.65-1.64,27.48-1.74,27.43z"/>
	</g>
</g>
<g>
	<path class="st5" d="M7.67,26.69v-3.23h0.69v1.28h1.21v-1.28h0.7v3.23H9.58v-1.42H8.36v1.42H7.67z M11.26,25.08
		c0-0.96,0.48-1.69,1.55-1.69c1.06,0,1.54,0.73,1.54,1.69c0,0.95-0.48,1.68-1.54,1.68C11.74,26.76,11.26,26.03,11.26,25.08
		 M12,25.08c0,0.55,0.13,1.18,0.81,1.18c0.68,0,0.81-0.63,0.81-1.18c0-0.56-0.13-1.18-0.81-1.18C12.13,23.9,12,24.52,12,25.08
		 M18.16,23.46v2.02c0,0.86-0.61,1.28-1.39,1.28c-0.78,0-1.39-0.42-1.39-1.28v-2.02h0.69v1.75c0,0.55,0.03,1.05,0.7,1.05
		c0.68,0,0.7-0.5,0.7-1.05v-1.75H18.16z M21.02,24.38c-0.03-0.33-0.2-0.49-0.54-0.49c-0.25,0-0.51,0.13-0.51,0.41
		c0,0.35,0.31,0.39,0.59,0.46c0.49,0.12,1.21,0.26,1.21,0.91c0,0.8-0.69,1.08-1.38,1.08c-0.74,0-1.26-0.29-1.23-1.11h0.7
		c-0.03,0.36,0.17,0.6,0.54,0.6c0.28,0,0.64-0.09,0.64-0.43c0-0.38-0.46-0.41-0.74-0.48c-0.45-0.11-1.06-0.31-1.06-0.89
		c0-0.74,0.68-1.07,1.33-1.07c0.62,0,1.11,0.34,1.11,0.99H21.02z M22.73,23.46h2.15V24h-1.47v0.76h1.38v0.54h-1.38v0.86h1.51v0.54
		h-2.2V23.46z"/>
	<path class="st5" d="M18.29,16.6c0,0,0,3.66,0,3.75c0,0.62,0.22,0.87,0.44,0.98v0.1h-0.66c-0.45,0-0.72-0.23-0.92-0.56
		c-0.33,0.42-0.93,0.7-1.64,0.7c-0.65,0-1.34-0.2-1.8-0.66c-0.43-0.43-0.51-1.1-0.51-1.71v-2.62c0-0.9-0.25-1.12-0.43-1.24v-0.09
		h0.26c0.52,0.02,1.39,0.3,1.39,1.33v2.47c0,1.3,0.44,1.8,1.36,1.8c0.59,0,1.27-0.35,1.27-1.42v-2.86c0-1-0.24-1.15-0.43-1.24v-0.09
		h2.1v0.1C18.53,15.43,18.29,15.56,18.29,16.6 M25.06,18.28c0,0.93-0.43,1.76-1.02,2.27c-0.6,0.51-1.27,0.87-2.61,0.87h-2.11v-0.08
		c0.21-0.12,0.43-0.33,0.43-0.99c0-0.1,0-3.8,0-3.8c0-1.06-0.31-1.14-0.43-1.21v-0.1h2.16c1.14-0.01,1.97,0.29,2.6,0.81
		C24.71,16.59,25.06,17.36,25.06,18.28 M23.87,18.4c0-2.69-2.01-2.68-2.9-2.68v5.05C21.67,20.83,23.87,20.83,23.87,18.4 M7.98,15.26
		c-0.11,0-0.26-0.03-0.36-0.07l-0.08,0.01v1h0.08c0.17-0.14,0.5-0.37,1.15-0.37l0.33,0c0.22,0,0.29,0.16,0.29,0.29
		c0,0.99,0,4.17,0,4.24c0,0.67-0.25,0.91-0.39,0.98v0.1h2v-0.1c-0.15-0.07-0.39-0.31-0.39-0.98c0-0.08,0-3.25,0-4.24
		c0-0.13,0.08-0.29,0.29-0.29l0.33,0c0.66,0,0.99,0.23,1.16,0.37h0.07v-1l-0.07-0.01c-0.11,0.04-0.26,0.07-0.37,0.07H7.98z
		 M7.29,20.26H7.2c-0.1,0.2-0.33,0.49-1.02,0.49H5.05c-0.28,0-0.29-0.3-0.29-0.3v-2.14h1.32c0.48,0,0.66-0.47,0.69-0.65H6.69
		c0,0-0.04,0.05-0.43,0.05H5.05c-0.28,0-0.29-0.21-0.29-0.29v-1.6h1.22c0.78,0,0.86,0.21,0.91,0.33h0.09v-0.94H6.9
		c0,0-0.06,0.05-0.27,0.05H3.12v0.09c0.31,0.13,0.4,0.36,0.41,0.98v4.48c0,0.3-0.22,0.48-0.41,0.53v0.1h3.1
		C7.06,21.43,7.25,20.69,7.29,20.26 M29.48,20.26H29.4c-0.1,0.2-0.32,0.49-1.02,0.49h-1.13c-0.28,0-0.29-0.3-0.29-0.3v-2.14h1.32
		c0.48,0,0.67-0.47,0.69-0.65h-0.08c0,0-0.04,0.05-0.43,0.05h-1.21c-0.28,0-0.29-0.21-0.29-0.29v-1.6h1.22
		c0.78,0,0.86,0.21,0.91,0.33h0.08v-0.94H29.1c0,0-0.05,0.05-0.27,0.05h-3.51v0.09c0.31,0.13,0.4,0.36,0.41,0.98v4.48
		c0,0.3-0.22,0.48-0.41,0.53v0.1h3.1C29.26,21.43,29.45,20.69,29.48,20.26"/>
	<path class="st5" d="M10.42,7.93c1.31,0.01,1.74,0.93,1.8,0.87c0.06-0.05-0.66-1.76-2.1-1.71C9.81,7.1,9.52,7.31,9.57,7.6
		C9.62,7.92,9.9,7.93,10.42,7.93 M22.16,7.93c0.52,0,0.8-0.01,0.86-0.33c0.05-0.29-0.24-0.5-0.55-0.51
		c-1.44-0.06-2.16,1.65-2.11,1.71C20.42,8.86,20.85,7.94,22.16,7.93 M25.69,8.92c-1.82-0.44-3.51,0.17-4.42,0.69
		c-0.48-0.22-1.04-0.17-1.47,0.15c-0.66,0.56-0.61,1.47-0.05,1.78c0.38,0.2,0.96-0.08,0.86-0.59c-0.08-0.41-0.66-0.54-0.89-0.12
		c-0.1,0.18-0.18,0.07-0.16-0.09c0.12-1.03,1.46-1.31,2.05-0.37c0.33,0.53,0.22,1.44-0.59,1.89c-0.94,0.52-2.73,0.06-3.24-1.69
		c0.99-0.64,1.72-1.5,2.05-2.63c0.19-0.65,0.2-1.59-0.42-2.24c-0.42-0.44-1.05-0.65-1.74-0.46c-1.05,0.3-1.4,1.51-1,2.17
		c0.11,0.2,0.34,0.53,0.91,0.49c0.52-0.04,0.83-0.42,0.83-0.85c0-0.23-0.14-0.48-0.42-0.55c-0.27-0.07-0.47,0.1-0.51,0.32
		c-0.03,0.18,0.04,0.33,0.15,0.41c0.11,0.08,0.33,0.08,0.44-0.02c0,0-0.05,0.37-0.48,0.39c-0.62,0.05-0.91-0.57-0.61-1.28
		c0.22-0.51,0.9-0.7,1.43-0.55c0.47,0.14,1.06,0.59,0.96,1.71c-0.11,1.29-1.24,2.7-3.07,3.43c-1.83-0.72-2.96-2.14-3.07-3.43
		c-0.09-1.12,0.5-1.57,0.97-1.71c0.53-0.15,1.21,0.04,1.43,0.55c0.3,0.71,0.01,1.33-0.61,1.28c-0.43-0.03-0.49-0.39-0.49-0.39
		c0.12,0.1,0.33,0.1,0.45,0.02c0.1-0.08,0.18-0.23,0.15-0.41c-0.04-0.22-0.24-0.39-0.51-0.32c-0.28,0.06-0.42,0.32-0.42,0.55
		c0,0.43,0.31,0.81,0.83,0.85c0.57,0.04,0.8-0.29,0.91-0.49c0.4-0.67,0.05-1.88-1-2.17c-0.7-0.19-1.33,0.03-1.74,0.46
		c-0.62,0.65-0.61,1.59-0.42,2.24c0.32,1.12,1.06,1.99,2.05,2.63c-0.51,1.75-2.3,2.21-3.24,1.69c-0.81-0.44-0.92-1.36-0.59-1.89
		c0.59-0.94,1.93-0.66,2.05,0.37c0.02,0.15-0.06,0.27-0.16,0.09c-0.24-0.43-0.81-0.3-0.89,0.12c-0.1,0.51,0.49,0.8,0.86,0.59
		c0.57-0.31,0.62-1.22-0.04-1.78c-0.44-0.33-1-0.38-1.48-0.15c-0.91-0.52-2.6-1.13-4.43-0.69c-1.47,0.36-2.5,1.67-2.21,3.09
		c0.25,1.19,1.28,1.71,2.27,1.55c1.04-0.16,1.5-1.17,1.32-1.86c-0.23-0.85-1.26-1.21-1.78-0.81c-0.41,0.31-0.38,0.97,0.2,1.09
		c0.43,0.09,0.83-0.37,0.52-0.82c-0.13-0.19,0.01-0.2,0.16-0.12c0.99,0.56,0.69,1.96-0.53,2.15c-0.68,0.1-1.56-0.32-1.64-1.4
		c-0.07-0.98,0.82-2.07,2.49-2.36c1.34-0.23,2.5,0.1,3.3,0.39c-0.1,0.09-0.2,0.19-0.28,0.31c-0.44,0.62-0.41,1.71,0.48,2.42
		c1.16,0.93,3.53,0.44,4.39-1.57c0.23,0.12,0.47,0.21,0.72,0.31v0h0v0c0.25-0.09,0.49-0.19,0.72-0.31c0.86,2.01,3.24,2.51,4.39,1.57
		c0.88-0.71,0.91-1.8,0.47-2.42c-0.08-0.12-0.18-0.22-0.28-0.31c0.79-0.3,1.95-0.62,3.29-0.39c1.68,0.28,2.55,1.37,2.48,2.36
		c-0.07,1.08-0.95,1.5-1.63,1.4c-1.22-0.18-1.53-1.59-0.54-2.15c0.15-0.09,0.28-0.07,0.16,0.12c-0.31,0.45,0.09,0.91,0.52,0.82
		c0.58-0.12,0.6-0.79,0.2-1.09c-0.53-0.4-1.56-0.04-1.78,0.81c-0.18,0.69,0.28,1.7,1.32,1.86c1,0.16,2.03-0.37,2.27-1.55
		C28.19,10.59,27.16,9.28,25.69,8.92 M9.15,11.89c0.02,0.23,0.2,0.41,0.41,0.38c0.18-0.03,0.23-0.26,0.17-0.64
		c-0.12-0.91,0.61-1.39,0.56-1.43C10.22,10.12,9.03,10.87,9.15,11.89 M22.28,10.2c-0.04,0.04,0.69,0.52,0.56,1.43
		c-0.05,0.38-0.01,0.61,0.17,0.64c0.21,0.04,0.39-0.14,0.42-0.38C23.54,10.87,22.36,10.12,22.28,10.2 M16.3,5.69
		c-0.21-1.31-1.12-1.33-1.12-1.33c1.03-0.18,1.12-1.38,1.12-1.38s0.09,1.2,1.12,1.38C17.41,4.37,16.5,4.38,16.3,5.69"/>
</g>
</svg>
