<?xml version="1.0" encoding="utf-8"?>
<!-- Generator: Adobe Illustrator 23.0.3, SVG Export Plug-In . SVG Version: 6.00 Build 0)  -->
<svg version="1.1" id="Layer_1" xmlns="http://www.w3.org/2000/svg" xmlns:xlink="http://www.w3.org/1999/xlink" x="0px" y="0px"
	 viewBox="0 0 110 110" style="enable-background:new 0 0 110 110;" xml:space="preserve">
<style type="text/css">
	.st0{display:none;}
	.st1{display:inline;fill:#61A60E;}
	.st2{display:inline;}
	.st3{fill:#FFFFFF;}
	.st4{fill:#61A60E;}
	.st5{fill:#F45197;}
</style>
<g class="st0">
	<path class="st1" d="M120.88,60.08h0.42l-1.31-1.43l0.11-0.02c0.23-0.05,0.42-0.13,0.53-0.23c0.15-0.14,0.22-0.3,0.22-0.5
		c0-0.17-0.06-0.31-0.17-0.44c-0.12-0.12-0.26-0.2-0.45-0.25c-0.18-0.05-0.38-0.05-0.68-0.05h-0.63l0,2.93l0.45,0v-1.38h0.09l0.15,0
		L120.88,60.08z M119.68,58.53c-0.07,0-0.14,0-0.21,0h-0.09v-1.21c0.05,0,0.11-0.01,0.15-0.01c0.35,0,0.54,0.05,0.63,0.15
		c0.1,0.11,0.15,0.27,0.15,0.46c0,0.11-0.01,0.2-0.04,0.28c-0.03,0.07-0.07,0.13-0.12,0.18c-0.05,0.04-0.12,0.08-0.19,0.1
		C119.87,58.51,119.8,58.53,119.68,58.53 M127.67,60.08h0.42l-1.31-1.43l0.11-0.02c0.23-0.05,0.42-0.13,0.53-0.23
		c0.15-0.14,0.22-0.3,0.22-0.5c0-0.17-0.06-0.31-0.17-0.44c-0.12-0.12-0.26-0.2-0.45-0.25c-0.18-0.05-0.38-0.05-0.68-0.05h-0.63
		l0,2.93l0.45,0v-1.38h0.09l0.15,0L127.67,60.08z M126.48,58.53c-0.08,0-0.14,0-0.21,0h-0.09v-1.21c0.05,0,0.11-0.01,0.15-0.01
		c0.35,0,0.54,0.05,0.63,0.15c0.1,0.11,0.15,0.27,0.15,0.46c0,0.11-0.01,0.2-0.04,0.28c-0.03,0.07-0.07,0.13-0.12,0.18
		c-0.05,0.04-0.12,0.08-0.19,0.1C126.66,58.51,126.59,58.53,126.48,58.53 M111.82,57.15l-0.19,0l-1.27,2.93h0.31l0.44-1.06h1.06
		l0.44,1.07h0.46L111.82,57.15z M111.22,58.75l0.42-1.02l0.42,1.02H111.22z M118.31,57.16h-0.27l0,1.64c0,0.21-0.01,0.37-0.02,0.47
		c-0.01,0.09-0.06,0.19-0.13,0.28c-0.07,0.09-0.17,0.17-0.32,0.23c-0.15,0.06-0.21,0.09-0.4,0.09c-0.23,0-0.39-0.06-0.53-0.14
		c-0.12-0.06-0.25-0.2-0.28-0.32c-0.03-0.13-0.04-0.34-0.04-0.64l0-1.62h-0.45v1.9c0,0.23,0.04,0.42,0.12,0.56
		c0.08,0.14,0.22,0.25,0.41,0.34c0.19,0.09,0.42,0.13,0.68,0.13c0.23,0,0.43-0.03,0.6-0.1c0.18-0.07,0.31-0.16,0.41-0.27
		c0.1-0.12,0.16-0.24,0.18-0.36c0.02-0.12,0.03-0.3,0.03-0.54L118.31,57.16z M136.07,57.16h-0.26l0,1.64c0,0.21-0.01,0.37-0.02,0.47
		c-0.02,0.09-0.06,0.19-0.13,0.28c-0.07,0.09-0.18,0.17-0.32,0.23c-0.15,0.06-0.21,0.09-0.4,0.09c-0.23,0-0.39-0.06-0.53-0.14
		c-0.12-0.06-0.26-0.2-0.28-0.32c-0.03-0.13-0.04-0.34-0.04-0.64l0-1.62h-0.45v1.9c0,0.23,0.04,0.42,0.12,0.56
		c0.08,0.14,0.21,0.25,0.4,0.34c0.19,0.09,0.42,0.13,0.68,0.13c0.23,0,0.43-0.03,0.6-0.1c0.17-0.07,0.31-0.16,0.41-0.27
		c0.1-0.12,0.16-0.24,0.18-0.36c0.02-0.12,0.03-0.3,0.03-0.54V57.16z M109.66,60.08l0.2,0v-2.92h-0.27v2.12l-1.79-2.12h-0.41v2.92
		h0.27l0-2.41L109.66,60.08z M112.89,57.43h1.07v2.66l0.44,0v-2.65h1.06v-0.27h-2.57 M141.24,60.08l0.01-0.27h-1.32v-2.66h-0.45
		l0,2.92L141.24,60.08z M123.47,57.42v-0.26h-1.71v2.92h1.83v-0.26l-1.37,0v-1.07l1.04,0v-0.26h-1.04v-1.07L123.47,57.42z
		 M130.37,57.42v-0.26h-1.71v2.92h1.83v-0.26l-1.38,0v-1.07l1.05,0v-0.26h-1.05v-1.07L130.37,57.42z M138.17,58.54
		c0.16-0.08,0.28-0.16,0.34-0.25c0.07-0.12,0.11-0.25,0.11-0.41c0-0.17-0.05-0.32-0.16-0.44c-0.1-0.11-0.25-0.19-0.43-0.24
		c-0.15-0.04-0.34-0.04-0.61-0.05l-0.67,0v2.92l0.83,0c0.36,0,0.63-0.04,0.8-0.11c0.16-0.06,0.28-0.16,0.36-0.28
		c0.08-0.13,0.13-0.27,0.13-0.43c0-0.19-0.06-0.34-0.19-0.47C138.53,58.65,138.3,58.58,138.17,58.54 M137.21,57.31
		c0.04,0,0.08-0.01,0.16-0.01c0.25,0,0.43,0.05,0.55,0.15c0.11,0.1,0.16,0.25,0.16,0.46c0,0.14-0.03,0.25-0.09,0.35
		c-0.06,0.09-0.14,0.15-0.24,0.18c-0.1,0.03-0.23,0.05-0.39,0.05h-0.14V57.31z M138.17,59.66c-0.07,0.1-0.17,0.17-0.27,0.2
		c-0.11,0.03-0.27,0.05-0.45,0.05h-0.23v-1.25h0.25c0.05,0,0.1,0,0.16,0c0.21,0.02,0.37,0.07,0.47,0.15c0.13,0.1,0.19,0.27,0.19,0.5
		C138.28,59.43,138.24,59.56,138.17,59.66 M141.77,60.08h0.45v-2.92h-0.45V60.08z M132.55,57.21c-0.16-0.04-0.37-0.05-0.65-0.05
		l-0.72,0v2.92h0.47v-1.34h0.31c0.36,0,0.61-0.03,0.76-0.09c0.15-0.06,0.26-0.16,0.34-0.29c0.08-0.12,0.12-0.27,0.12-0.43
		c0-0.19-0.06-0.35-0.17-0.47C132.87,57.34,132.73,57.26,132.55,57.21 M132.51,58.33c-0.07,0.1-0.16,0.16-0.26,0.19
		c-0.11,0.03-0.25,0.05-0.42,0.05h-0.19v-1.26c0.05,0,0.12-0.01,0.21-0.01c0.27,0,0.47,0.05,0.59,0.16c0.12,0.1,0.18,0.27,0.18,0.5
		C132.62,58.11,132.58,58.23,132.51,58.33 M145.01,57.49v0.29l-0.06-0.08c-0.05-0.07-0.1-0.12-0.16-0.17
		c-0.19-0.14-0.42-0.21-0.67-0.21c-0.3,0-0.54,0.11-0.71,0.34c-0.18,0.23-0.27,0.56-0.27,0.99c0,0.4,0.1,0.72,0.29,0.93
		c0.19,0.21,0.44,0.32,0.72,0.32c0.15,0,0.31-0.03,0.47-0.1c0.13-0.05,0.23-0.15,0.32-0.27l0.06-0.08v0.29L145,59.74
		c-0.25,0.23-0.57,0.34-0.93,0.34c-0.45,0-0.7-0.14-0.96-0.39c-0.28-0.26-0.42-0.6-0.42-1.03c0-0.28,0.06-0.54,0.19-0.79
		c0.12-0.23,0.29-0.41,0.54-0.55c0.23-0.13,0.39-0.18,0.66-0.18c0.22,0,0.42,0.04,0.61,0.13c0.13,0.06,0.23,0.13,0.32,0.2
		L145.01,57.49z"/>
	<path class="st1" d="M120.6,63.39v-0.95h-0.15v-0.15h0.15v-0.05c0-0.16,0.04-0.3,0.13-0.38c0.07-0.07,0.18-0.1,0.27-0.1
		c0.07,0,0.13,0.02,0.17,0.03l-0.03,0.16c-0.03-0.01-0.07-0.03-0.13-0.03c-0.17,0-0.21,0.15-0.21,0.32v0.06h0.27v0.15h-0.27v0.95
		H120.6z M121.42,62.63c0-0.13,0-0.24-0.01-0.34h0.18l0.01,0.22h0.01c0.05-0.15,0.17-0.24,0.3-0.24c0.02,0,0.04,0,0.06,0.01v0.19
		c-0.02,0-0.04-0.01-0.07-0.01c-0.14,0-0.24,0.11-0.27,0.26c0,0.03-0.01,0.06-0.01,0.09v0.59h-0.2V62.63z M123.32,62.83
		c0,0.41-0.28,0.58-0.55,0.58c-0.3,0-0.53-0.22-0.53-0.56c0-0.37,0.24-0.59,0.55-0.59C123.11,62.26,123.32,62.49,123.32,62.83z
		 M122.45,62.84c0,0.24,0.14,0.42,0.33,0.42c0.19,0,0.34-0.18,0.34-0.43c0-0.19-0.09-0.42-0.33-0.42
		C122.55,62.41,122.45,62.63,122.45,62.84z M123.76,62.59c0-0.11,0-0.21-0.01-0.3h0.18l0.01,0.18h0.01c0.06-0.11,0.17-0.2,0.35-0.2
		c0.15,0,0.26,0.09,0.31,0.22h0c0.03-0.06,0.08-0.11,0.13-0.14c0.07-0.05,0.14-0.08,0.24-0.08c0.15,0,0.36,0.1,0.36,0.48v0.65h-0.19
		v-0.62c0-0.21-0.08-0.34-0.24-0.34c-0.11,0-0.2,0.08-0.24,0.18c-0.01,0.03-0.02,0.06-0.02,0.1v0.68h-0.2v-0.66
		c0-0.18-0.08-0.3-0.23-0.3c-0.13,0-0.22,0.1-0.25,0.2c-0.01,0.03-0.02,0.06-0.02,0.1v0.66h-0.19V62.59z M126.61,62.88
		c0.01,0.27,0.18,0.38,0.38,0.38c0.14,0,0.23-0.03,0.31-0.06l0.03,0.14c-0.07,0.03-0.19,0.07-0.37,0.07c-0.34,0-0.54-0.22-0.54-0.56
		c0-0.33,0.2-0.59,0.52-0.59c0.36,0,0.45,0.32,0.45,0.52c0,0.04,0,0.07-0.01,0.09H126.61z M127.2,62.73c0-0.13-0.05-0.32-0.28-0.32
		c-0.2,0-0.29,0.19-0.31,0.32H127.2z M128.59,63.13c0,0.1,0,0.19,0.02,0.26h-0.18l-0.02-0.14h-0.01c-0.06,0.09-0.18,0.16-0.34,0.16
		c-0.22,0-0.34-0.16-0.34-0.32c0-0.27,0.24-0.41,0.66-0.41v-0.02c0-0.09-0.02-0.25-0.25-0.25c-0.1,0-0.21,0.03-0.29,0.08l-0.04-0.13
		c0.09-0.06,0.22-0.1,0.36-0.1c0.34,0,0.42,0.23,0.42,0.45V63.13z M128.4,62.83c-0.22,0-0.46,0.03-0.46,0.25
		c0,0.13,0.09,0.19,0.19,0.19c0.14,0,0.24-0.09,0.27-0.18c0.01-0.02,0.01-0.04,0.01-0.06V62.83z M129.1,62.63
		c0-0.13,0-0.24-0.01-0.34h0.17l0.01,0.22h0.01c0.05-0.15,0.17-0.24,0.3-0.24c0.02,0,0.04,0,0.06,0.01v0.19
		c-0.02,0-0.04-0.01-0.07-0.01c-0.14,0-0.24,0.11-0.27,0.26c0,0.03-0.01,0.06-0.01,0.09v0.59h-0.2V62.63z M130.32,62.03v0.26h0.29
		v0.15h-0.29v0.59c0,0.14,0.04,0.21,0.15,0.21c0.06,0,0.09,0,0.12-0.01l0.01,0.15c-0.04,0.02-0.1,0.03-0.18,0.03
		c-0.09,0-0.17-0.03-0.21-0.09c-0.06-0.06-0.08-0.16-0.08-0.29v-0.6h-0.17v-0.15h0.17v-0.2L130.32,62.03z M131.01,61.78h0.2v0.69h0
		c0.03-0.06,0.08-0.11,0.14-0.14c0.06-0.03,0.13-0.06,0.2-0.06c0.15,0,0.38,0.09,0.38,0.47v0.66h-0.2v-0.63
		c0-0.18-0.07-0.33-0.25-0.33c-0.13,0-0.23,0.09-0.27,0.2c-0.01,0.03-0.01,0.06-0.01,0.1v0.66h-0.2V61.78z"/>
	<path class="st1" d="M130.41,48.13c0,0,0-0.01,0-0.02l0,0c-0.01-0.02-0.01-0.03-0.02-0.05l0,0c-0.09-0.27-0.31-0.72-0.83-1.07
		c-0.08-0.06-0.36-0.2-0.36-0.31c0.02-0.14,0.23-0.08,0.26,0.08c0.03,0.15,0.26,0.17,0.38,0.18c-0.25-0.72-1.17-1.08-1.21-1.1
		c-0.07-0.02-0.2-0.06-0.36-0.07l0,0c-0.14-0.01-0.15-0.05-0.11-0.08c0.07-0.02,0.1-0.06,0.1-0.06c-0.87-0.5-2.12-0.51-2.12-0.51h0
		c-0.12,0-0.23,0-0.34,0.02h0.01c-0.41,0.02-0.8,0.1-1.16,0.23c-0.56,0.21-1.01,0.5-1.41,0.93l-0.02,0.01c0,0-0.31,0.12-0.2,0.23
		c0.07,0.07,0.17,0.06,0.31,0.04c0.14-0.02,0.08-0.17,0.08-0.17c0.17-0.62,1.23-0.75,1.23-0.75c0,0,0.3-0.05,0.57,0.04l0,0
		c0,0,0.92,0.16,0.77,1.25v0c0,0.1-0.02,0.21-0.06,0.32c-0.17,0.49,0.2,0.69,0.38,0.81c0,0,0.18-0.06,0.25-0.16
		c0,0,0.01-0.01,0.02-0.03c0,0,0.22-0.22,0.34,0.45c0.12,0.68,0.58,1.17,1.45,1.17c0.31-0.54,0.01-1.28-0.16-1.45
		c-0.17-0.17-0.02-0.37-0.02-0.37l0,0c0-0.01,0.01-0.02,0.02-0.03c0.03-0.02,0.06-0.04,0.12-0.05c0.09-0.01,0.16,0.02,0.22,0.08
		c0.02,0.02,0.06,0.08,0.09,0.18c0,0.02,0.01,0.04,0.01,0.06c0,0,0.06,1.06,0.41,1.53c0.1,0.16,0.29,0.37,0.63,0.52l0,0
		c0,0,0.23,0.11,0.56,0.15c0.01,0,0.01,0,0.02,0v0c0.11,0.01,0.23,0.01,0.35,0C130.58,50.14,130.71,48.9,130.41,48.13z M130.5,50.8
		c-0.12-0.05-0.24,0-0.4,0.09c-0.16,0.09-0.02,0.25-0.02,0.25c-0.01,0.46-0.49,1-0.6,1.12c-1.1,1.09-1.71,0.97-1.71,0.97
		c-0.59-0.14-0.46-0.71-0.46-0.71l0,0c0-0.2,0.04-0.46,0.19-0.72c0.33-0.6-0.1-0.95-0.3-1.15c0,0-0.24,0.04-0.36,0.15
		c0,0-0.01,0.01-0.03,0.03c-0.01,0.01-0.35,0.24-0.35-0.67c0-0.92-0.48-1.67-1.62-1.87c0,0-0.06,0.06-0.14,0.18
		c-0.03,0.04-0.07,0.1-0.1,0.16c0,0.01-0.01,0.02-0.01,0.03c-0.03,0.05-0.05,0.1-0.08,0.16c-0.29,0.73,0.07,1.57,0.07,1.57
		c0.03,0.05,0.06,0.08,0.06,0.08s0.15,0.13,0,0.29c-0.04,0.03-0.09,0.04-0.17,0.04c-0.11-0.01-0.21-0.07-0.27-0.16
		c-0.02-0.04-0.06-0.11-0.08-0.25c0-0.02,0-0.05,0-0.09c0,0,0.17-1.4-0.18-2.1c-0.14-0.33-0.5-0.85-1.4-1.15
		c-0.33,0.48-0.57,1.02-0.7,1.61c-0.04,0.29-0.06,0.62-0.04,1l0.01,0c0.04,0.36,0.21,1.04,0.85,1.66c0.09,0.1,0.42,0.34,0.4,0.5
		c-0.05,0.18-0.31,0.04-0.32-0.16c-0.01-0.2-0.31-0.29-0.46-0.32c-0.06-0.01-0.09-0.02-0.09-0.02c0.02,0.18,0.07,0.35,0.15,0.5
		c0.08,0.13,0.16,0.26,0.25,0.39c0.29,0.36,0.68,0.64,0.98,0.82c0.01,0.01,0.32,0.2,0.72,0.26c0,0,0.14,0.02,0.07,0.07
		c-0.01,0.01-0.01,0.01-0.02,0.02c-0.04,0.01-0.06,0.08-0.07,0.09c0,0,0,0,0,0c-0.03,0.11,0.07,0.16,0.14,0.21
		c0.01,0.01,0.02,0.01,0.04,0.02c0.54,0.24,1.14,0.37,1.77,0.37c0.54,0,1.06-0.1,1.54-0.28h0c0.22-0.07,0.43-0.17,0.61-0.28
		c0,0,0,0,0.01,0h0c0.39-0.22,0.66-0.45,0.66-0.45c0.6-0.52,1.02-1.1,1.32-1.82l0.02-0.03C130.36,51.19,130.68,50.89,130.5,50.8z"/>
</g>
<g class="st0">
	<rect x="100.12" y="117.51" class="st1" width="52.16" height="22.48"/>
	<g class="st2">
		<path class="st3" d="M120.88,134.58h0.42l-1.31-1.43l0.11-0.02c0.23-0.05,0.42-0.13,0.53-0.24c0.15-0.14,0.22-0.3,0.22-0.5
			c0-0.17-0.06-0.31-0.17-0.43c-0.12-0.12-0.26-0.2-0.45-0.26c-0.18-0.05-0.38-0.05-0.67-0.05h-0.63l0,2.93l0.45,0l0-1.38h0.09
			l0.15,0L120.88,134.58z M119.68,133.02c-0.07,0.01-0.14,0-0.21,0h-0.09v-1.21c0.06,0,0.11-0.01,0.15-0.01
			c0.35,0,0.54,0.05,0.63,0.15c0.1,0.11,0.15,0.27,0.15,0.46c0,0.11-0.01,0.21-0.04,0.28c-0.03,0.07-0.07,0.13-0.12,0.18
			c-0.05,0.04-0.11,0.08-0.19,0.1C119.87,133.01,119.8,133.02,119.68,133.02 M127.67,134.58h0.42l-1.31-1.43l0.11-0.02
			c0.23-0.05,0.42-0.13,0.53-0.24c0.15-0.14,0.23-0.3,0.23-0.5c0-0.17-0.06-0.31-0.17-0.43c-0.11-0.12-0.26-0.2-0.45-0.26
			c-0.18-0.05-0.38-0.05-0.67-0.05h-0.63l0,2.93l0.45,0v-1.38h0.09l0.16,0L127.67,134.58z M126.47,133.02c-0.07,0.01-0.14,0-0.21,0
			h-0.09v-1.21c0.06,0,0.11-0.01,0.15-0.01c0.35,0,0.54,0.05,0.63,0.15c0.1,0.11,0.15,0.27,0.15,0.46c0,0.11-0.01,0.21-0.04,0.28
			c-0.03,0.07-0.07,0.13-0.12,0.18c-0.05,0.04-0.11,0.08-0.19,0.1C126.66,133.01,126.59,133.02,126.47,133.02 M111.82,131.65
			l-0.19,0l-1.27,2.93h0.31l0.44-1.06h1.06l0.44,1.06h0.46L111.82,131.65z M111.22,133.25l0.43-1.02l0.42,1.02H111.22z
			 M118.31,131.65h-0.26l0,1.64c0,0.22-0.01,0.38-0.02,0.47c-0.01,0.1-0.06,0.19-0.13,0.28c-0.07,0.09-0.18,0.17-0.32,0.23
			c-0.15,0.06-0.21,0.09-0.4,0.09c-0.23,0.01-0.39-0.06-0.53-0.14c-0.12-0.06-0.26-0.2-0.28-0.32c-0.03-0.13-0.05-0.34-0.05-0.64
			l0-1.62h-0.45v1.9c0,0.23,0.04,0.42,0.12,0.56c0.08,0.14,0.22,0.25,0.41,0.34c0.19,0.09,0.42,0.13,0.68,0.13
			c0.23,0,0.43-0.04,0.6-0.1c0.18-0.07,0.31-0.16,0.41-0.27c0.1-0.12,0.16-0.24,0.18-0.36c0.02-0.12,0.03-0.3,0.03-0.54
			L118.31,131.65z M136.07,131.65h-0.26l0,1.64c0,0.22-0.01,0.38-0.03,0.47c-0.02,0.1-0.06,0.19-0.13,0.28
			c-0.07,0.09-0.17,0.17-0.32,0.23c-0.15,0.06-0.21,0.09-0.4,0.09c-0.23,0.01-0.39-0.06-0.53-0.14c-0.12-0.06-0.26-0.2-0.28-0.32
			c-0.03-0.13-0.04-0.34-0.04-0.64l0-1.62h-0.45v1.9c0,0.23,0.04,0.42,0.12,0.56c0.08,0.14,0.22,0.25,0.41,0.34
			c0.19,0.09,0.42,0.13,0.68,0.13c0.23,0,0.43-0.04,0.6-0.1c0.18-0.07,0.31-0.16,0.41-0.27c0.1-0.12,0.16-0.24,0.18-0.36
			c0.02-0.12,0.03-0.3,0.03-0.54L136.07,131.65z M109.66,134.57l0.2,0v-2.92h-0.27v2.12l-1.79-2.12h-0.41v2.92h0.27l0-2.41
			L109.66,134.57z M112.89,131.92h1.07v2.66l0.44,0v-2.66h1.06v-0.26h-2.57 M141.24,134.58l0.01-0.26h-1.32v-2.66h-0.45l0,2.93
			L141.24,134.58z M123.47,131.92v-0.26h-1.71v2.93h1.83v-0.26l-1.37,0v-1.07h1.04v-0.26h-1.04v-1.07L123.47,131.92z M130.37,131.92
			v-0.26h-1.71v2.93h1.82v-0.26l-1.37,0v-1.07h1.04v-0.26h-1.04v-1.07L130.37,131.92z M138.17,133.04c0.16-0.08,0.28-0.16,0.34-0.25
			c0.07-0.12,0.11-0.25,0.11-0.41c0-0.17-0.05-0.32-0.16-0.44c-0.1-0.11-0.25-0.19-0.43-0.24c-0.15-0.04-0.34-0.04-0.61-0.05
			l-0.67,0v2.92l0.83,0c0.36,0,0.64-0.04,0.8-0.11c0.16-0.06,0.28-0.16,0.36-0.28c0.08-0.13,0.13-0.27,0.13-0.43
			c0-0.19-0.06-0.34-0.19-0.47C138.53,133.15,138.3,133.07,138.17,133.04 M137.21,131.8c0.04,0,0.08,0,0.16,0
			c0.25,0,0.43,0.05,0.55,0.14c0.11,0.1,0.16,0.25,0.16,0.46c0,0.14-0.03,0.25-0.1,0.35c-0.06,0.09-0.14,0.15-0.24,0.18
			c-0.1,0.03-0.23,0.05-0.39,0.05h-0.14V131.8z M138.17,134.15c-0.07,0.1-0.17,0.16-0.27,0.2c-0.11,0.03-0.27,0.05-0.45,0.05h-0.23
			v-1.25h0.25c0.05,0,0.1,0,0.16,0c0.21,0.02,0.37,0.07,0.47,0.15c0.13,0.1,0.19,0.27,0.19,0.5
			C138.28,133.93,138.24,134.05,138.17,134.15 M141.77,134.58h0.45v-2.92h-0.45V134.58z M132.55,131.7
			c-0.16-0.04-0.37-0.05-0.65-0.05l-0.72,0v2.93h0.47v-1.34h0.31c0.36,0,0.61-0.03,0.75-0.1c0.15-0.06,0.26-0.16,0.34-0.28
			c0.08-0.13,0.12-0.27,0.12-0.43c0-0.19-0.06-0.34-0.17-0.47C132.87,131.84,132.73,131.75,132.55,131.7 M132.51,132.82
			c-0.07,0.1-0.15,0.16-0.26,0.2c-0.11,0.03-0.25,0.05-0.42,0.05h-0.19v-1.26c0.05,0,0.12-0.01,0.2-0.01c0.27,0,0.47,0.05,0.59,0.16
			c0.12,0.1,0.17,0.27,0.17,0.49C132.62,132.6,132.58,132.72,132.51,132.82 M145.01,131.98v0.29l-0.06-0.08
			c-0.05-0.06-0.1-0.12-0.16-0.16c-0.19-0.14-0.42-0.21-0.66-0.21c-0.3,0-0.54,0.11-0.72,0.34c-0.18,0.23-0.27,0.56-0.27,0.99
			c0,0.4,0.1,0.71,0.29,0.93c0.19,0.21,0.44,0.32,0.72,0.32c0.15,0,0.31-0.04,0.48-0.11c0.13-0.05,0.23-0.15,0.32-0.27l0.06-0.08
			v0.29l-0.01,0.01c-0.25,0.23-0.57,0.34-0.93,0.34c-0.45,0-0.7-0.14-0.96-0.39c-0.28-0.26-0.42-0.6-0.42-1.03
			c0-0.28,0.06-0.54,0.19-0.79c0.12-0.23,0.29-0.41,0.54-0.55c0.23-0.13,0.39-0.18,0.65-0.18c0.22,0,0.42,0.04,0.61,0.13
			c0.13,0.06,0.24,0.13,0.32,0.2L145.01,131.98z"/>
		<path class="st3" d="M120.6,137.88v-0.95h-0.15v-0.15h0.15v-0.05c0-0.16,0.03-0.29,0.13-0.38c0.08-0.07,0.17-0.1,0.27-0.1
			c0.07,0,0.13,0.02,0.17,0.03l-0.03,0.15c-0.03-0.01-0.07-0.02-0.13-0.02c-0.17,0-0.21,0.15-0.21,0.32v0.06h0.26v0.15h-0.26v0.95
			H120.6z M121.42,137.13c0-0.13,0-0.24-0.01-0.34h0.17l0.01,0.21h0.01c0.05-0.15,0.17-0.24,0.31-0.24c0.02,0,0.04,0,0.06,0.01v0.19
			c-0.02,0-0.04-0.01-0.07-0.01c-0.14,0-0.24,0.11-0.27,0.26c0,0.03-0.01,0.06-0.01,0.09v0.59h-0.2V137.13z M123.32,137.33
			c0,0.41-0.28,0.58-0.55,0.58c-0.3,0-0.53-0.22-0.53-0.57c0-0.37,0.24-0.58,0.55-0.58C123.11,136.76,123.32,136.99,123.32,137.33z
			 M122.45,137.34c0,0.24,0.14,0.42,0.34,0.42c0.19,0,0.33-0.18,0.33-0.43c0-0.19-0.09-0.42-0.33-0.42
			C122.55,136.91,122.45,137.13,122.45,137.34z M123.76,137.08c0-0.11,0-0.21-0.01-0.3h0.17l0.01,0.18h0.01
			c0.06-0.11,0.16-0.2,0.35-0.2c0.15,0,0.26,0.09,0.31,0.22h0c0.03-0.06,0.08-0.11,0.12-0.14c0.07-0.05,0.14-0.08,0.24-0.08
			c0.14,0,0.36,0.1,0.36,0.48v0.65h-0.2v-0.62c0-0.21-0.08-0.34-0.24-0.34c-0.11,0-0.2,0.08-0.24,0.18
			c-0.01,0.03-0.02,0.06-0.02,0.1v0.68h-0.2v-0.66c0-0.17-0.08-0.3-0.23-0.3c-0.13,0-0.22,0.1-0.25,0.2
			c-0.01,0.03-0.01,0.06-0.01,0.1v0.66h-0.2V137.08z M126.61,137.37c0,0.27,0.18,0.38,0.38,0.38c0.15,0,0.23-0.02,0.3-0.06
			l0.04,0.14c-0.07,0.03-0.19,0.07-0.37,0.07c-0.34,0-0.54-0.23-0.54-0.56c0-0.33,0.2-0.59,0.51-0.59c0.36,0,0.46,0.32,0.46,0.52
			c0,0.04-0.01,0.07-0.01,0.09H126.61z M127.2,137.23c0-0.13-0.05-0.33-0.28-0.33c-0.2,0-0.29,0.19-0.31,0.33H127.2z M128.6,137.62
			c0,0.09,0,0.19,0.02,0.26h-0.18l-0.02-0.14h-0.01c-0.06,0.09-0.18,0.16-0.34,0.16c-0.22,0-0.34-0.16-0.34-0.32
			c0-0.27,0.24-0.41,0.66-0.41v-0.02c0-0.09-0.03-0.25-0.25-0.25c-0.1,0-0.21,0.03-0.29,0.08l-0.04-0.13
			c0.09-0.06,0.22-0.1,0.36-0.1c0.34,0,0.42,0.23,0.42,0.45V137.62z M128.4,137.32c-0.22,0-0.46,0.04-0.46,0.25
			c0,0.13,0.08,0.19,0.19,0.19c0.14,0,0.23-0.09,0.26-0.19c0.01-0.02,0.01-0.04,0.01-0.06V137.32z M129.1,137.13
			c0-0.13,0-0.24-0.01-0.34h0.17l0.01,0.21h0.01c0.05-0.15,0.17-0.24,0.3-0.24c0.02,0,0.04,0,0.05,0.01v0.19
			c-0.02,0-0.04-0.01-0.07-0.01c-0.14,0-0.24,0.11-0.27,0.26c0,0.03-0.01,0.06-0.01,0.09v0.59h-0.2V137.13z M130.32,136.52v0.26
			h0.29v0.15h-0.29v0.59c0,0.14,0.04,0.21,0.15,0.21c0.05,0,0.09,0,0.12-0.01l0.01,0.15c-0.04,0.02-0.1,0.03-0.18,0.03
			c-0.09,0-0.17-0.03-0.22-0.09c-0.06-0.06-0.08-0.16-0.08-0.29v-0.6h-0.17v-0.15h0.17v-0.2L130.32,136.52z M131.01,136.27h0.2v0.69
			h0.01c0.03-0.06,0.08-0.11,0.14-0.14c0.06-0.03,0.13-0.06,0.2-0.06c0.15,0,0.38,0.09,0.38,0.47v0.65h-0.2v-0.63
			c0-0.18-0.07-0.33-0.25-0.33c-0.13,0-0.23,0.09-0.27,0.2c-0.01,0.03-0.01,0.06-0.01,0.1v0.66h-0.2V136.27z"/>
		<path class="st3" d="M130.41,122.62c0-0.01,0-0.01,0-0.02l0,0c-0.01-0.01-0.01-0.03-0.02-0.04l0,0c-0.09-0.27-0.31-0.72-0.83-1.07
			c-0.08-0.06-0.36-0.2-0.36-0.31c0.01-0.14,0.23-0.08,0.26,0.08c0.03,0.15,0.27,0.17,0.38,0.18c-0.25-0.72-1.17-1.08-1.22-1.1
			c-0.07-0.02-0.2-0.06-0.35-0.08l0,0c-0.14-0.01-0.15-0.05-0.11-0.08c0.07-0.02,0.1-0.06,0.1-0.06c-0.87-0.5-2.12-0.51-2.12-0.51
			l0,0c-0.12,0-0.23,0-0.34,0.02h0.01c-0.41,0.02-0.8,0.1-1.17,0.23c-0.56,0.21-1.01,0.5-1.41,0.93l-0.02,0.02
			c0,0-0.31,0.12-0.2,0.23c0.07,0.07,0.17,0.06,0.31,0.04c0.14-0.02,0.08-0.17,0.08-0.17c0.17-0.62,1.23-0.75,1.23-0.75
			c0,0,0.3-0.05,0.57,0.04l0,0c0,0,0.92,0.16,0.77,1.25l0,0c0,0.1-0.02,0.21-0.06,0.32c-0.17,0.49,0.2,0.69,0.38,0.81
			c0,0,0.17-0.06,0.24-0.16c0,0,0.01-0.01,0.02-0.02c0-0.01,0.22-0.22,0.35,0.45c0.12,0.68,0.58,1.17,1.45,1.17
			c0.31-0.54,0-1.29-0.16-1.45c-0.17-0.17-0.02-0.37-0.02-0.37l0,0c0.01-0.01,0.01-0.02,0.02-0.03c0.03-0.02,0.06-0.04,0.12-0.05
			c0.08-0.01,0.16,0.02,0.22,0.08c0.02,0.02,0.06,0.08,0.09,0.18c0,0.02,0.01,0.04,0.01,0.07c0,0,0.06,1.06,0.41,1.53
			c0.1,0.16,0.29,0.37,0.63,0.52l0,0c0,0,0.23,0.11,0.56,0.15c0.01,0,0.02,0,0.02,0l0,0c0.11,0.01,0.23,0.01,0.35,0
			C130.58,124.64,130.71,123.39,130.41,122.62z M130.5,125.3c-0.12-0.06-0.24,0-0.4,0.09c-0.16,0.09-0.02,0.25-0.02,0.25
			c-0.01,0.46-0.49,1-0.6,1.12c-1.1,1.09-1.71,0.97-1.71,0.97c-0.59-0.14-0.46-0.71-0.46-0.71l0,0c0-0.2,0.04-0.46,0.19-0.72
			c0.33-0.6-0.1-0.95-0.3-1.15c0,0-0.24,0.04-0.36,0.15c0,0-0.01,0.01-0.03,0.03c-0.01,0-0.35,0.24-0.35-0.67
			c0-0.92-0.48-1.67-1.62-1.87c0,0-0.07,0.06-0.14,0.18c-0.03,0.04-0.07,0.1-0.1,0.16c-0.01,0.01-0.01,0.02-0.02,0.03
			c-0.03,0.05-0.05,0.1-0.08,0.16c-0.29,0.73,0.07,1.57,0.07,1.57c0.03,0.05,0.05,0.07,0.05,0.07s0.15,0.13,0,0.29
			c-0.04,0.02-0.09,0.04-0.17,0.03c-0.11,0-0.2-0.07-0.27-0.16c-0.02-0.04-0.06-0.12-0.08-0.26c0-0.02,0-0.05,0-0.08
			c0,0,0.17-1.41-0.18-2.1c-0.14-0.33-0.5-0.86-1.39-1.15c-0.33,0.48-0.57,1.02-0.7,1.61c-0.04,0.29-0.06,0.62-0.04,1l0.01-0.01
			c0.04,0.36,0.2,1.04,0.85,1.66c0.09,0.1,0.42,0.34,0.4,0.5c-0.05,0.18-0.32,0.05-0.32-0.16c-0.01-0.2-0.31-0.29-0.46-0.32
			c-0.05-0.01-0.09-0.02-0.09-0.02c0.02,0.18,0.07,0.35,0.15,0.5c0.08,0.13,0.16,0.26,0.25,0.39c0.29,0.36,0.68,0.64,0.97,0.82
			c0.01,0.01,0.33,0.2,0.72,0.26c0,0,0.14,0.02,0.07,0.07c0,0-0.01,0.01-0.02,0.02c-0.04,0.01-0.06,0.08-0.06,0.09c0,0,0,0,0,0.01
			c-0.03,0.1,0.07,0.15,0.15,0.21c0.01,0.01,0.02,0.01,0.03,0.02c0.54,0.23,1.14,0.37,1.77,0.37c0.54,0,1.06-0.1,1.54-0.28h0
			c0.22-0.07,0.43-0.17,0.61-0.28c0,0,0.01,0,0.01,0h0c0.39-0.22,0.66-0.45,0.66-0.45c0.6-0.52,1.02-1.1,1.32-1.82l0.02-0.02
			C130.36,125.68,130.68,125.38,130.5,125.3z"/>
	</g>
</g>
<g class="st0">
	<g class="st2">
		<g>
			<path class="st4" d="M123.6,78.73l0.11-0.02c0.23-0.05,0.42-0.13,0.53-0.24c0.15-0.14,0.22-0.3,0.22-0.5
				c0-0.17-0.06-0.31-0.17-0.43c-0.12-0.12-0.26-0.2-0.45-0.26c-0.18-0.05-0.38-0.05-0.67-0.05l-0.16,0l-0.44,0h-0.04v0.62l0,0.13
				v1.39l0,0.15l0.01,0.6v0.03h0.45v-0.03l-0.01-0.58c0-0.05,0-0.11,0-0.17v-0.6h0.09l0.15,0l1.24,1.37l0.01,0.01h0.42l-0.05-0.06
				L123.6,78.73z M123.29,78.61c-0.07,0-0.14,0-0.21,0h-0.09V77.4c0.05,0,0.11-0.01,0.15-0.01c0.34,0,0.53,0.05,0.63,0.15
				c0.1,0.11,0.15,0.27,0.15,0.46c0,0.11-0.01,0.21-0.04,0.28c-0.03,0.07-0.07,0.13-0.12,0.18c-0.05,0.04-0.12,0.08-0.2,0.1
				C123.48,78.58,123.41,78.6,123.29,78.61 M116.44,79.57l-0.04-0.08l-0.97-2.24l-0.01-0.02h-0.02l-0.05,0l-0.09,0h-0.02l-0.01,0.02
				l-1.24,2.86l-0.02,0.04h0.05l0.13,0h0.02v0h0.11l0.01-0.02l0.43-1.04h1.06l0.43,1.05l0.01,0.02h0.46l-0.02-0.05L116.44,79.57z
				 M114.83,78.83l0.43-1.02l0.42,1.02H114.83z M121.65,77.82c0,0.03,0,0.06,0,0.1v0.95c0,0.22-0.01,0.38-0.03,0.47
				c-0.01,0.1-0.06,0.19-0.12,0.28c-0.07,0.09-0.18,0.17-0.32,0.23c-0.15,0.06-0.21,0.09-0.4,0.09c-0.23,0.01-0.39-0.06-0.53-0.14
				c-0.12-0.06-0.26-0.2-0.28-0.31c-0.03-0.13-0.05-0.34-0.05-0.64v-0.88c0-0.07,0-0.13,0-0.19v-0.55h-0.45v1.9
				c0,0.23,0.04,0.42,0.12,0.56c0.08,0.14,0.22,0.25,0.41,0.34c0.19,0.09,0.42,0.13,0.68,0.13c0.23,0,0.43-0.03,0.6-0.1
				c0.18-0.07,0.31-0.16,0.41-0.27c0.1-0.12,0.16-0.24,0.18-0.36c0.02-0.12,0.03-0.3,0.03-0.54v-0.93c0-0.04,0-0.08,0-0.12v-0.57
				v-0.03h-0.27V77.82z M113.46,77.23h-0.27v2.12l-1.78-2.1l-0.01-0.01h-0.24l-0.03,0h-0.14v2.92h0.17v0h0.1v-0.54
				c0-0.04,0-0.08,0-0.12v-1.75l2,2.39l0.01,0.01h0c0,0,0.02,0,0.02,0h0.08h0.04l0.06,0l-0.01-0.02V77.23z M116.5,77.26l0,0.2v0.03
				h1.07v2.66H118v-0.51l0-0.17V77.5h0.34h0.03h0.69v-0.27h-2.57V77.26z M130.39,78.73l0.11-0.02c0.23-0.05,0.42-0.13,0.53-0.24
				c0.15-0.14,0.22-0.3,0.22-0.5c0-0.17-0.06-0.31-0.17-0.43c-0.11-0.12-0.26-0.2-0.44-0.26c-0.18-0.05-0.38-0.05-0.68-0.05l-0.16,0
				l-0.44,0h-0.03l0,0.04v0.59c0,0.04,0,0.09,0,0.13v1.39l0,0.15l0.01,0.6v0.03h0.45v-0.03l-0.01-0.58c0-0.05,0-0.1,0-0.17v-0.6
				h0.08h0h0.01l0.15,0l1.24,1.37l0.01,0.01h0.42l-0.05-0.06L130.39,78.73z M130.09,78.61c-0.08,0-0.14,0-0.21,0h-0.09V77.4
				c0.05,0,0.11-0.01,0.15-0.01c0.35,0,0.54,0.05,0.63,0.15c0.1,0.11,0.15,0.27,0.15,0.46c0,0.11-0.02,0.21-0.04,0.28
				c-0.03,0.07-0.07,0.13-0.12,0.18c-0.05,0.04-0.12,0.08-0.2,0.1C130.27,78.58,130.2,78.6,130.09,78.61 M144.18,79.89h-0.23
				c-0.04,0-0.07,0-0.11,0h-0.31v-0.24c0-0.06,0-0.12,0-0.18v-1.5c0-0.07,0-0.13,0-0.19v-0.56h-0.45l0,0.03l0,0.56l0,0.16v1.4
				c0,0.06,0,0.12,0,0.17v0.61h0.03l1.7,0h0.03v-0.03l0-0.2v-0.03h-0.03L144.18,79.89z M126.23,79.9l-0.4-0.01v-1.06h1.01h0.03
				v-0.26h-1.04v-1.07h0.4l0.82,0h0.03v-0.27h-1.71v0.68v0.11v1.35v0.11v0.68h1.82v-0.26h-0.04L126.23,79.9z M141.78,78.62
				c0.17-0.08,0.28-0.16,0.34-0.25c0.07-0.12,0.11-0.25,0.11-0.4c0-0.17-0.05-0.32-0.16-0.44c-0.1-0.1-0.25-0.19-0.43-0.24
				c-0.15-0.04-0.34-0.04-0.61-0.05l-0.07,0l-0.49,0h-0.08h-0.04v2.93h0.04l0.4,0v0c0,0,0.03,0,0.03,0l0.03,0v0l0.33,0
				c0.36,0,0.63-0.04,0.8-0.11c0.16-0.06,0.28-0.16,0.36-0.28c0.08-0.13,0.13-0.27,0.13-0.43c0-0.19-0.06-0.34-0.19-0.47
				C142.14,78.73,141.91,78.65,141.78,78.62 M140.82,77.38c0.04,0,0.08,0,0.16,0c0.25,0,0.43,0.05,0.54,0.15
				c0.11,0.1,0.16,0.25,0.16,0.46c0,0.14-0.03,0.25-0.1,0.35c-0.06,0.09-0.14,0.15-0.24,0.18c-0.1,0.03-0.23,0.05-0.39,0.05h-0.14
				V77.38z M141.78,79.73c-0.07,0.1-0.17,0.16-0.27,0.2c-0.12,0.03-0.26,0.05-0.45,0.05h-0.23v-1.26h0.25c0.05,0,0.1,0,0.16,0
				c0.21,0.02,0.37,0.07,0.47,0.15c0.13,0.1,0.19,0.27,0.19,0.5C141.89,79.51,141.85,79.63,141.78,79.73 M145.83,77.73v-0.5h-0.45
				v0.03v0.51c0,0.07,0,0.14,0,0.21v1.39c0,0.09,0,0.16,0,0.23v0.55h0.45v-0.51c0-0.07-0.01-0.16-0.01-0.28v-1.39
				C145.82,77.89,145.82,77.8,145.83,77.73 M133.13,79.89c0,0-0.31,0-0.4,0v-1.07h1.01h0.03v-0.26h-1.04v-1.07h0.4l0.82,0h0.03
				v-0.27h-1.71v2.92h1.82v-0.26h-0.03L133.13,79.89z M136.16,77.28c-0.16-0.04-0.37-0.05-0.66-0.05l-0.07,0l-0.62,0l-0.03,0v2.93
				h0.47v-1.34h0.31c0.36,0,0.61-0.03,0.75-0.09c0.15-0.06,0.26-0.16,0.34-0.28c0.08-0.12,0.12-0.27,0.12-0.43
				c0-0.19-0.06-0.34-0.17-0.47C136.48,77.42,136.34,77.33,136.16,77.28 M136.12,78.4c-0.07,0.1-0.15,0.16-0.26,0.19
				c-0.1,0.03-0.25,0.05-0.42,0.05h-0.19v-1.26c0.05,0,0.12-0.01,0.21-0.01c0.27,0,0.47,0.05,0.59,0.16
				c0.12,0.1,0.18,0.27,0.18,0.49C136.22,78.18,136.19,78.3,136.12,78.4 M139.41,77.82c0,0.04,0,0.07,0,0.1v0.95
				c0,0.21-0.01,0.38-0.03,0.47c-0.02,0.1-0.06,0.19-0.13,0.28c-0.07,0.09-0.17,0.17-0.32,0.23c-0.15,0.06-0.21,0.09-0.4,0.09
				c-0.23,0.01-0.39-0.06-0.53-0.14c-0.12-0.06-0.26-0.2-0.28-0.31c-0.03-0.13-0.04-0.34-0.04-0.64v-1.62h-0.45v1.9
				c0,0.23,0.04,0.42,0.12,0.56c0.08,0.14,0.22,0.25,0.41,0.34c0.19,0.09,0.42,0.13,0.68,0.13c0.22,0,0.43-0.03,0.6-0.1
				c0.17-0.07,0.31-0.16,0.41-0.27c0.1-0.12,0.16-0.24,0.18-0.36c0.02-0.12,0.03-0.3,0.03-0.54v-0.93c0-0.05,0-0.09,0-0.12v-0.57
				v-0.03h-0.26V77.82z"/>
			<path class="st4" d="M148.61,77.55c-0.09-0.07-0.19-0.14-0.32-0.2c-0.18-0.09-0.38-0.13-0.61-0.13c-0.27,0-0.43,0.04-0.65,0.18
				c-0.25,0.15-0.42,0.33-0.54,0.55c-0.13,0.25-0.19,0.51-0.19,0.79c0,0.42,0.14,0.77,0.42,1.03c0.26,0.25,0.51,0.39,0.96,0.39
				c0.37,0,0.68-0.12,0.93-0.34l0.01-0.01v-0.29l-0.06,0.08c-0.09,0.12-0.2,0.21-0.32,0.27c-0.16,0.07-0.32,0.11-0.48,0.11
				c-0.29,0-0.53-0.11-0.72-0.32c-0.19-0.21-0.29-0.53-0.29-0.93c0-0.43,0.09-0.76,0.27-0.99c0.17-0.22,0.42-0.34,0.71-0.34
				c0.25,0,0.47,0.07,0.66,0.21c0.06,0.04,0.12,0.1,0.17,0.17l0.06,0.08v-0.29L148.61,77.55z"/>
		</g>
	</g>
	<path class="st1" d="M108.7,77.86c0,0,0-0.01,0-0.01L108.7,77.86c-0.01-0.02-0.01-0.03-0.01-0.03l0,0
		c-0.05-0.16-0.18-0.41-0.48-0.61c-0.05-0.04-0.2-0.11-0.21-0.18c0.01-0.08,0.13-0.04,0.15,0.04c0.02,0.08,0.15,0.1,0.22,0.1
		c-0.14-0.41-0.67-0.62-0.69-0.63c-0.04-0.01-0.11-0.03-0.21-0.04h0c-0.08-0.01-0.08-0.03-0.06-0.05c0.04-0.01,0.06-0.04,0.06-0.04
		c-0.5-0.29-1.21-0.29-1.21-0.29l0,0c-0.07,0-0.13,0-0.19,0.01h0c-0.23,0.01-0.46,0.06-0.67,0.13c-0.32,0.12-0.58,0.28-0.81,0.53
		l-0.01,0.01c0,0-0.18,0.07-0.12,0.13c0.04,0.04,0.1,0.04,0.18,0.02c0.08-0.01,0.04-0.09,0.04-0.09c0.1-0.36,0.7-0.43,0.7-0.43
		s0.17-0.03,0.33,0.03l0,0c0,0,0.53,0.09,0.44,0.71l0,0c0,0.06-0.01,0.12-0.03,0.18c-0.1,0.28,0.11,0.39,0.21,0.46
		c0,0,0.1-0.03,0.14-0.09c0,0,0-0.01,0.01-0.01c0,0,0.13-0.13,0.2,0.26c0.07,0.39,0.33,0.67,0.83,0.67c0.18-0.31,0-0.73-0.09-0.83
		c-0.1-0.1-0.01-0.21-0.01-0.21h0c0,0,0-0.01,0.01-0.01c0.02-0.01,0.04-0.03,0.07-0.03c0.05-0.01,0.09,0.01,0.13,0.05
		c0.01,0.01,0.04,0.04,0.05,0.1c0,0.01,0,0.02,0,0.04c0,0,0.03,0.61,0.23,0.88c0.06,0.09,0.17,0.21,0.36,0.29l0,0
		c0,0,0.13,0.07,0.32,0.09c0,0,0.01,0,0.01,0l0,0c0.06,0.01,0.13,0.01,0.2,0C108.81,79.01,108.88,78.3,108.7,77.86z M108.76,79.39
		c-0.07-0.03-0.14,0-0.23,0.05c-0.09,0.05-0.01,0.14-0.01,0.14c-0.01,0.26-0.28,0.57-0.35,0.64c-0.63,0.62-0.98,0.55-0.98,0.55
		c-0.34-0.08-0.27-0.4-0.27-0.4l0,0c0-0.12,0.02-0.26,0.11-0.41c0.19-0.34-0.05-0.54-0.17-0.66c0,0-0.14,0.02-0.2,0.09
		c0,0-0.01,0.01-0.02,0.02c0,0-0.2,0.14-0.2-0.38c0-0.53-0.28-0.95-0.92-1.07c0,0-0.04,0.03-0.08,0.1
		c-0.02,0.03-0.04,0.06-0.06,0.09c0,0,0,0.01-0.01,0.01c-0.02,0.03-0.03,0.06-0.04,0.09c-0.17,0.42,0.04,0.9,0.04,0.9
		c0.02,0.03,0.03,0.04,0.03,0.04s0.08,0.08,0,0.17c-0.02,0.01-0.05,0.02-0.1,0.02c-0.07,0-0.12-0.04-0.16-0.09
		c-0.01-0.02-0.04-0.07-0.05-0.15c0-0.01,0-0.03,0-0.05c0,0,0.1-0.8-0.1-1.2c-0.08-0.19-0.29-0.49-0.8-0.66
		c-0.19,0.27-0.33,0.58-0.4,0.92c-0.02,0.17-0.04,0.35-0.02,0.57l0.01,0c0.02,0.21,0.12,0.59,0.49,0.95
		c0.05,0.06,0.24,0.2,0.23,0.28c-0.03,0.1-0.18,0.03-0.19-0.09c0-0.11-0.17-0.17-0.26-0.18c-0.03-0.01-0.05-0.01-0.05-0.01
		c0.01,0.1,0.04,0.2,0.08,0.29c0.04,0.08,0.09,0.15,0.14,0.22c0.17,0.21,0.39,0.37,0.56,0.47c0.01,0,0.19,0.11,0.41,0.15
		c0,0,0.08,0.01,0.04,0.04c0,0-0.01,0.01-0.01,0.01c-0.02,0.01-0.04,0.05-0.04,0.05c0,0,0,0,0,0c-0.02,0.06,0.04,0.09,0.08,0.12
		c0.01,0,0.01,0.01,0.02,0.01c0.31,0.13,0.65,0.21,1.01,0.21c0.31,0,0.61-0.06,0.88-0.16l0,0c0.13-0.04,0.25-0.1,0.35-0.16
		c0,0,0,0,0,0h0c0.22-0.12,0.38-0.26,0.38-0.26c0.34-0.3,0.59-0.63,0.75-1.04l0.01-0.01C108.67,79.61,108.86,79.44,108.76,79.39z"/>
</g>
<g class="st0">
	<rect x="100.12" y="91.9" class="st1" width="52.16" height="22.43"/>
	<g class="st2">
		<g>
			<g>
				<path class="st3" d="M123.6,103.15l0.11-0.02c0.23-0.05,0.42-0.13,0.53-0.24c0.15-0.14,0.23-0.31,0.23-0.5
					c0-0.17-0.06-0.31-0.17-0.43c-0.11-0.12-0.26-0.2-0.45-0.25c-0.18-0.05-0.38-0.05-0.67-0.05h-0.16h-0.44h-0.04v0.62l0,0.13v1.39
					l0,0.15l0.01,0.6v0.03h0.45v-0.03l-0.01-0.58c0-0.06,0-0.11,0-0.17v-0.6h0.09l0.15,0l1.24,1.37l0.01,0.01h0.42l-0.05-0.06
					L123.6,103.15z M123.29,103.03c-0.07,0-0.14,0-0.21,0h-0.09v-1.21c0.05,0,0.11-0.01,0.15-0.01c0.35,0,0.54,0.04,0.63,0.15
					c0.1,0.11,0.15,0.27,0.15,0.46c0,0.11-0.01,0.21-0.04,0.28c-0.03,0.07-0.07,0.13-0.12,0.18c-0.05,0.04-0.12,0.08-0.2,0.1
					C123.48,103.01,123.41,103.03,123.29,103.03 M116.44,103.99l-0.04-0.08l-0.97-2.24l-0.01-0.02h-0.02h-0.05l-0.09,0h-0.02
					l-0.01,0.02l-1.24,2.86l-0.02,0.05h0.05l0.14,0h0.02v0h0.11l0.01-0.02l0.43-1.04h1.06l0.43,1.04l0.01,0.02h0.46l-0.02-0.05
					L116.44,103.99z M114.83,103.26l0.43-1.02l0.42,1.02H114.83z M121.65,102.25c0,0.03,0,0.07,0,0.1v0.95
					c0,0.21-0.01,0.38-0.03,0.47c-0.01,0.1-0.06,0.19-0.12,0.28c-0.07,0.09-0.18,0.17-0.32,0.23c-0.14,0.06-0.21,0.09-0.4,0.09
					c-0.23,0.01-0.39-0.06-0.53-0.14c-0.12-0.06-0.26-0.2-0.28-0.32c-0.03-0.13-0.05-0.34-0.05-0.64v-0.88c0-0.07,0-0.13,0-0.19
					v-0.55h-0.45v1.9c0,0.23,0.04,0.42,0.12,0.56c0.08,0.14,0.22,0.25,0.41,0.34c0.19,0.09,0.42,0.13,0.68,0.13
					c0.23,0,0.43-0.04,0.6-0.1c0.18-0.07,0.31-0.16,0.41-0.27c0.1-0.12,0.16-0.24,0.18-0.36c0.02-0.12,0.03-0.3,0.03-0.54v-0.93
					c0-0.04,0-0.08,0-0.12v-0.57v-0.03h-0.27V102.25z M113.46,101.66h-0.27v2.12l-1.78-2.11l-0.01-0.02h-0.24h-0.03h-0.14v2.92h0.17
					v0h0.1v-0.54c0-0.04,0-0.08,0-0.12v-1.74l2,2.39l0.01,0.01h0c0,0,0.02,0,0.02,0h0.08h0.04h0.06l-0.01-0.01V101.66z
					 M116.5,101.69l0,0.2v0.03h1.07v2.66h0.44v-0.51l0-0.17v-1.97h0.33h0.03h0.69v-0.27h-2.57V101.69z M130.39,103.15l0.11-0.02
					c0.23-0.05,0.42-0.13,0.53-0.24c0.15-0.14,0.22-0.31,0.22-0.5c0-0.17-0.06-0.31-0.17-0.43c-0.11-0.12-0.26-0.2-0.44-0.25
					c-0.18-0.05-0.39-0.05-0.68-0.05h-0.16h-0.44h-0.03l0,0.03v0.59c0,0.04,0,0.09,0,0.13v1.39l0,0.15l0.01,0.6v0.03h0.45v-0.03
					l-0.01-0.58c0-0.05,0-0.11,0-0.17v-0.6h0.08h0h0.01l0.15,0l1.24,1.37l0.01,0.01h0.42l-0.05-0.06L130.39,103.15z M130.09,103.03
					c-0.08,0-0.14,0-0.21,0h-0.09v-1.21c0.05,0,0.11-0.01,0.15-0.01c0.35,0,0.54,0.04,0.63,0.15c0.1,0.11,0.15,0.27,0.15,0.46
					c0,0.11-0.02,0.21-0.04,0.28c-0.03,0.07-0.07,0.13-0.12,0.18c-0.05,0.04-0.12,0.08-0.19,0.1
					C130.27,103.01,130.2,103.03,130.09,103.03 M144.18,104.32h-0.23c-0.04,0-0.07,0-0.11,0h-0.31v-0.24c0-0.06,0-0.12,0-0.18v-1.5
					c0-0.06,0-0.13,0-0.19v-0.56h-0.45l0,0.03l0,0.56l0,0.16v1.4c0,0.06,0,0.11,0,0.17v0.61h0.03l1.7,0h0.03v-0.03l0-0.2v-0.03
					h-0.03H144.18z M126.23,104.32l-0.41,0v-1.07h1.01h0.03v-0.26h-1.04v-1.07h0.41l0.82,0h0.03v-0.27h-1.71v0.68v0.11v1.35v0.11
					v0.68h1.83v-0.26h-0.03L126.23,104.32z M141.78,103.04c0.17-0.08,0.28-0.16,0.34-0.25c0.07-0.12,0.11-0.25,0.11-0.41
					c0-0.17-0.05-0.32-0.16-0.44c-0.1-0.11-0.25-0.19-0.43-0.24c-0.15-0.04-0.34-0.04-0.61-0.05h-0.07h-0.49l-0.08,0h-0.03v2.93
					h0.03l0.4,0v0h0.03l0.03,0v0l0.33,0c0.36,0,0.63-0.04,0.8-0.11c0.16-0.06,0.28-0.16,0.36-0.28c0.08-0.13,0.13-0.27,0.13-0.43
					c0-0.19-0.06-0.35-0.19-0.47C142.14,103.15,141.91,103.07,141.78,103.04 M140.82,101.81c0.04,0,0.08-0.01,0.16-0.01
					c0.25,0,0.43,0.05,0.54,0.15c0.11,0.1,0.16,0.25,0.16,0.46c0,0.14-0.03,0.25-0.1,0.35c-0.06,0.09-0.14,0.15-0.24,0.18
					c-0.1,0.03-0.23,0.04-0.39,0.04h-0.14V101.81z M141.78,104.16c-0.08,0.1-0.17,0.16-0.28,0.2c-0.11,0.03-0.26,0.05-0.45,0.05
					h-0.23v-1.26h0.25c0.05,0,0.1,0,0.16,0c0.21,0.02,0.37,0.07,0.47,0.15c0.13,0.1,0.19,0.27,0.19,0.5
					C141.89,103.94,141.85,104.06,141.78,104.16 M145.83,102.16v-0.5h-0.45v0.04v0.51c0,0.07,0,0.14,0,0.21v1.39
					c0,0.09,0,0.16,0,0.23v0.55h0.45v-0.51c0-0.07-0.01-0.16-0.01-0.28v-1.39C145.82,102.32,145.83,102.23,145.83,102.16
					 M133.13,104.32c0,0-0.31,0-0.4-0.01v-1.06h1.01h0.03v-0.26h-1.04v-1.07h0.4l0.82,0h0.03v-0.27h-1.71v2.92h1.82v-0.26h-0.03
					L133.13,104.32z M136.16,101.71c-0.16-0.05-0.37-0.05-0.65-0.06h-0.07l-0.62,0l-0.03,0v2.93h0.47v-1.34h0.31
					c0.36,0,0.61-0.03,0.76-0.09c0.15-0.06,0.26-0.16,0.34-0.28c0.08-0.13,0.12-0.27,0.12-0.43c0-0.19-0.06-0.34-0.17-0.47
					C136.48,101.85,136.34,101.76,136.16,101.71 M136.12,102.83c-0.07,0.1-0.16,0.16-0.26,0.19c-0.11,0.03-0.25,0.05-0.42,0.05
					h-0.19v-1.26c0.05,0,0.12-0.01,0.21-0.01c0.27,0,0.47,0.05,0.59,0.16c0.12,0.1,0.18,0.27,0.18,0.5
					C136.22,102.61,136.19,102.73,136.12,102.83 M139.41,102.25c0,0.04,0,0.07,0,0.1v0.95c0,0.21-0.01,0.38-0.03,0.47
					c-0.02,0.1-0.06,0.19-0.13,0.28c-0.07,0.09-0.17,0.17-0.31,0.23c-0.15,0.06-0.21,0.09-0.4,0.09c-0.23,0.01-0.39-0.06-0.53-0.14
					c-0.12-0.06-0.26-0.2-0.28-0.32c-0.03-0.13-0.04-0.34-0.04-0.64v-1.62h-0.45v1.9c0,0.23,0.04,0.42,0.12,0.56
					c0.08,0.14,0.22,0.25,0.41,0.34c0.19,0.09,0.42,0.13,0.68,0.13c0.22,0,0.43-0.04,0.6-0.1c0.17-0.07,0.31-0.16,0.41-0.27
					c0.1-0.12,0.16-0.24,0.18-0.36c0.02-0.12,0.03-0.3,0.03-0.54v-0.93c0-0.05,0-0.09,0-0.12v-0.57v-0.03h-0.26V102.25z"/>
				<path class="st3" d="M148.61,101.97c-0.09-0.07-0.19-0.14-0.32-0.2c-0.18-0.09-0.38-0.13-0.61-0.13c-0.27,0-0.43,0.04-0.65,0.18
					c-0.25,0.14-0.42,0.33-0.54,0.55c-0.13,0.25-0.19,0.51-0.19,0.79c0,0.42,0.14,0.77,0.42,1.03c0.26,0.25,0.51,0.39,0.96,0.39
					c0.37,0,0.68-0.12,0.93-0.34l0.01-0.01v-0.29l-0.06,0.08c-0.09,0.12-0.2,0.21-0.32,0.27c-0.16,0.07-0.32,0.1-0.48,0.1
					c-0.29,0-0.53-0.1-0.72-0.32c-0.19-0.21-0.29-0.53-0.29-0.93c0-0.43,0.09-0.76,0.27-0.99c0.17-0.23,0.42-0.34,0.71-0.34
					c0.25,0,0.47,0.07,0.66,0.21c0.06,0.04,0.12,0.1,0.17,0.16l0.06,0.08v-0.29L148.61,101.97z"/>
			</g>
		</g>
		<path class="st3" d="M108.71,102.29c0,0,0-0.01,0-0.01L108.71,102.29c-0.01-0.02-0.01-0.03-0.01-0.03l0,0
			c-0.05-0.15-0.17-0.41-0.48-0.61c-0.05-0.04-0.2-0.11-0.21-0.18c0.01-0.08,0.13-0.04,0.15,0.04c0.02,0.09,0.15,0.1,0.22,0.1
			c-0.14-0.41-0.67-0.62-0.7-0.63c-0.04-0.01-0.11-0.04-0.2-0.04h0c-0.08-0.01-0.08-0.03-0.06-0.05c0.04-0.01,0.06-0.04,0.06-0.04
			c-0.5-0.29-1.21-0.29-1.21-0.29h0c-0.07,0-0.13,0-0.19,0.01h0.01c-0.23,0.01-0.46,0.06-0.67,0.13c-0.32,0.12-0.58,0.28-0.81,0.53
			l-0.01,0.01c0,0-0.18,0.07-0.12,0.13c0.04,0.04,0.1,0.04,0.18,0.03c0.08-0.01,0.04-0.09,0.04-0.09c0.1-0.35,0.7-0.43,0.7-0.43
			s0.17-0.03,0.33,0.02l0,0c0,0,0.53,0.09,0.44,0.71l0,0c0,0.06-0.01,0.12-0.03,0.18c-0.1,0.28,0.11,0.39,0.21,0.46
			c0,0,0.1-0.03,0.14-0.09c0,0,0-0.01,0.01-0.02c0,0,0.13-0.13,0.2,0.26c0.07,0.39,0.33,0.67,0.83,0.67c0.18-0.31,0-0.74-0.09-0.83
			c-0.1-0.1-0.01-0.21-0.01-0.21h0c0-0.01,0-0.01,0.01-0.02c0.01-0.01,0.04-0.02,0.07-0.03c0.05-0.01,0.09,0.01,0.13,0.05
			c0.01,0.01,0.04,0.05,0.05,0.1c0,0.01,0,0.02,0.01,0.04c0,0,0.03,0.61,0.23,0.88c0.06,0.09,0.17,0.21,0.36,0.29l0,0
			c0,0,0.13,0.06,0.32,0.08c0,0,0.01,0,0.01,0h0c0.06,0.01,0.13,0.01,0.2,0C108.81,103.44,108.88,102.73,108.71,102.29z
			 M108.76,103.82c-0.07-0.03-0.14,0-0.23,0.05c-0.09,0.05-0.01,0.14-0.01,0.14c-0.01,0.26-0.29,0.57-0.35,0.64
			c-0.63,0.62-0.98,0.55-0.98,0.55c-0.34-0.08-0.26-0.4-0.26-0.4l0,0c0-0.12,0.02-0.26,0.11-0.41c0.19-0.34-0.05-0.54-0.17-0.66
			c0,0-0.14,0.02-0.2,0.09c0,0-0.01,0.01-0.02,0.02c0,0-0.2,0.13-0.2-0.39c0-0.52-0.28-0.95-0.93-1.07c0,0-0.04,0.04-0.08,0.1
			c-0.02,0.03-0.04,0.06-0.06,0.09c0,0,0,0.01-0.01,0.01c-0.01,0.03-0.03,0.06-0.04,0.09c-0.17,0.42,0.04,0.9,0.04,0.9
			c0.02,0.03,0.03,0.04,0.03,0.04s0.08,0.08,0,0.16c-0.02,0.01-0.05,0.02-0.1,0.02c-0.07,0-0.12-0.04-0.16-0.09
			c-0.01-0.02-0.04-0.07-0.04-0.15c0-0.01,0-0.03,0-0.05c0,0,0.1-0.8-0.1-1.2c-0.08-0.19-0.28-0.49-0.8-0.66
			c-0.19,0.27-0.33,0.58-0.4,0.92c-0.02,0.17-0.03,0.35-0.02,0.57l0,0c0.02,0.21,0.12,0.59,0.49,0.95c0.05,0.06,0.24,0.2,0.23,0.28
			c-0.03,0.1-0.18,0.03-0.19-0.09c0-0.12-0.17-0.17-0.26-0.18c-0.03-0.01-0.05-0.01-0.05-0.01c0.01,0.1,0.04,0.2,0.08,0.29
			c0.04,0.08,0.09,0.15,0.14,0.22c0.17,0.21,0.39,0.37,0.56,0.47c0,0,0.19,0.11,0.41,0.15c0,0,0.08,0.01,0.04,0.04
			c0,0,0,0.01-0.01,0.01c-0.02,0.01-0.04,0.05-0.04,0.05c0,0,0,0,0,0c-0.02,0.06,0.04,0.09,0.08,0.12c0.01,0.01,0.01,0.01,0.02,0.01
			c0.31,0.13,0.65,0.21,1.01,0.21c0.31,0,0.61-0.06,0.88-0.16l0,0c0.12-0.04,0.24-0.1,0.35-0.16c0,0,0,0,0,0h0
			c0.22-0.13,0.38-0.26,0.38-0.26c0.34-0.3,0.58-0.63,0.75-1.04l0-0.01C108.67,104.04,108.86,103.87,108.76,103.82z"/>
	</g>
</g>
<g>
	<path class="st5" d="M28.81,86.01V76.2h2.1v3.88h3.69V76.2h2.12v9.81h-2.09v-4.32H30.9v4.32H28.81z M39.71,81.11
		c0-2.91,1.45-5.13,4.69-5.13c3.23,0,4.68,2.22,4.68,5.13c0,2.89-1.45,5.1-4.68,5.1C41.16,86.22,39.71,84,39.71,81.11 M41.94,81.11
		c0,1.66,0.39,3.58,2.46,3.58c2.06,0,2.46-1.92,2.46-3.58c0-1.69-0.39-3.59-2.46-3.59C42.33,77.52,41.94,79.43,41.94,81.11
		 M60.64,76.2v6.13c0,2.62-1.86,3.88-4.22,3.88c-2.36,0-4.21-1.26-4.21-3.88V76.2h2.09v5.32c0,1.66,0.08,3.17,2.12,3.17
		c2.06,0,2.14-1.51,2.14-3.17V76.2H60.64z M69.33,79c-0.09-0.99-0.61-1.47-1.63-1.47c-0.77,0-1.55,0.4-1.55,1.26
		c0,1.05,0.95,1.19,1.79,1.39c1.48,0.37,3.66,0.8,3.66,2.77c0,2.43-2.09,3.28-4.19,3.28c-2.23,0-3.81-0.88-3.75-3.35h2.14
		c-0.09,1.09,0.53,1.83,1.63,1.83c0.84,0,1.95-0.26,1.95-1.31c0-1.16-1.4-1.24-2.23-1.47c-1.35-0.33-3.23-0.95-3.23-2.69
		c0-2.24,2.05-3.25,4.05-3.25c1.89,0,3.37,1.04,3.37,3.02H69.33z M74.51,76.2h6.53v1.63h-4.45v2.29h4.17v1.63h-4.17v2.62h4.59v1.63
		h-6.67V76.2z"/>
	<path class="st5" d="M61.04,55.37c0,0-0.01,11.12-0.01,11.39c0,1.88,0.67,2.64,1.35,2.97v0.29h-2.01c-1.36,0-2.19-0.7-2.78-1.69
		c-0.99,1.26-2.83,2.14-4.99,2.14c-1.98,0-4.07-0.61-5.45-1.99c-1.3-1.31-1.55-3.33-1.55-5.19v-7.94c0-2.72-0.77-3.4-1.3-3.76v-0.27
		h0.79c1.57,0.07,4.23,0.9,4.23,4.03v7.51c0,3.96,1.33,5.47,4.14,5.47c1.8,0,3.85-1.06,3.85-4.29v-8.68c0-3.05-0.73-3.49-1.31-3.76
		v-0.27h6.36v0.3C61.77,51.83,61.04,52.23,61.04,55.37 M81.57,60.49c0,2.82-1.29,5.33-3.11,6.89c-1.82,1.56-3.86,2.65-7.92,2.65
		h-6.41v-0.25c0.64-0.37,1.31-1,1.31-2.99c0-0.29-0.01-11.52-0.01-11.52c0-3.22-0.94-3.47-1.3-3.67v-0.29h6.55
		c3.46-0.03,5.97,0.87,7.9,2.47C80.51,55.35,81.57,57.68,81.57,60.49 M77.97,60.86c0-8.15-6.09-8.13-8.8-8.13v15.31
		C71.28,68.2,77.97,68.2,77.97,60.86 M29.75,51.32c-0.34,0-0.78-0.1-1.1-0.22l-0.24,0.02v3.02h0.24c0.51-0.43,1.5-1.12,3.5-1.12
		l1,0.01c0.65,0,0.89,0.47,0.89,0.88c0,3.01,0.01,12.64,0.01,12.87c0,2.02-0.74,2.76-1.18,2.96v0.29h6.08v-0.29
		c-0.45-0.2-1.19-0.94-1.19-2.96c0-0.23,0.01-9.86,0.01-12.87c0-0.41,0.24-0.88,0.88-0.88l1-0.01c2.01,0,2.99,0.69,3.51,1.12h0.23
		v-3.02l-0.23-0.02c-0.33,0.13-0.78,0.22-1.11,0.22H29.75z M27.65,66.49h-0.26c-0.3,0.6-0.99,1.48-3.1,1.48h-3.43
		c-0.85,0-0.89-0.9-0.89-0.9v-6.5h4c1.46,0,2.02-1.43,2.1-1.98h-0.23c0,0-0.11,0.15-1.3,0.15h-3.67c-0.85,0-0.88-0.64-0.89-0.88
		v-4.85h3.71c2.36,0,2.61,0.63,2.76,1.01h0.26v-2.87h-0.24c0,0-0.17,0.16-0.82,0.16H15v0.27c0.93,0.39,1.21,1.09,1.24,2.97v13.58
		c0,0.91-0.67,1.47-1.24,1.6v0.29h9.41C26.95,70.03,27.54,67.79,27.65,66.49 M95,66.49h-0.25c-0.31,0.6-0.98,1.48-3.1,1.48h-3.42
		c-0.86,0-0.89-0.9-0.89-0.9v-6.5h3.99c1.46,0,2.03-1.43,2.1-1.98h-0.24c0,0-0.11,0.15-1.3,0.15h-3.67c-0.86,0-0.88-0.64-0.89-0.88
		v-4.85h3.71c2.35,0,2.61,0.63,2.76,1.01h0.25v-2.87h-0.23c0,0-0.15,0.16-0.81,0.16H82.36v0.27c0.93,0.39,1.21,1.09,1.25,2.97v13.58
		c0,0.91-0.67,1.47-1.25,1.6v0.29h9.4C94.31,70.03,94.89,67.79,95,66.49"/>
	<path class="st5" d="M37.16,29.08c3.98,0.03,5.28,2.83,5.47,2.63c0.18-0.16-1.99-5.35-6.36-5.18c-0.96,0.03-1.84,0.66-1.69,1.55
		C34.73,29.04,35.59,29.07,37.16,29.08 M72.77,29.08c1.58-0.01,2.43-0.04,2.59-1c0.14-0.88-0.74-1.51-1.68-1.55
		c-4.38-0.17-6.55,5.01-6.39,5.18C67.5,31.91,68.79,29.11,72.77,29.08 M83.48,32.1c-5.52-1.34-10.64,0.5-13.41,2.09
		c-1.45-0.68-3.16-0.51-4.47,0.47c-2.01,1.71-1.84,4.46-0.14,5.4c1.15,0.62,2.92-0.25,2.62-1.8c-0.25-1.25-1.99-1.65-2.69-0.35
		c-0.31,0.56-0.55,0.21-0.5-0.26c0.36-3.12,4.43-3.97,6.22-1.13c1,1.59,0.67,4.38-1.79,5.72c-2.86,1.57-8.29,0.19-9.83-5.13
		c2.99-1.93,5.23-4.56,6.22-7.97c0.58-1.97,0.61-4.83-1.29-6.8c-1.27-1.32-3.18-1.98-5.27-1.4c-3.19,0.9-4.24,4.57-3.04,6.6
		c0.35,0.6,1.04,1.6,2.77,1.48c1.59-0.12,2.51-1.27,2.52-2.59c0-0.7-0.44-1.47-1.26-1.66c-0.82-0.21-1.43,0.29-1.56,0.96
		c-0.1,0.54,0.13,1,0.45,1.23c0.33,0.24,1,0.24,1.33-0.06c0,0-0.15,1.12-1.46,1.2c-1.89,0.14-2.76-1.73-1.84-3.88
		c0.67-1.55,2.73-2.13,4.34-1.66c1.43,0.43,3.22,1.8,2.92,5.18c-0.33,3.91-3.75,8.2-9.33,10.4c-5.55-2.2-8.98-6.49-9.33-10.4
		c-0.28-3.38,1.5-4.75,2.94-5.18c1.6-0.47,3.68,0.11,4.34,1.66c0.91,2.15,0.04,4.02-1.84,3.88c-1.31-0.08-1.47-1.2-1.47-1.2
		c0.35,0.3,1.02,0.3,1.35,0.06c0.31-0.23,0.55-0.69,0.46-1.23c-0.14-0.67-0.74-1.17-1.56-0.96c-0.84,0.19-1.27,0.96-1.27,1.66
		c0.01,1.32,0.93,2.47,2.52,2.59c1.73,0.12,2.42-0.88,2.77-1.48c1.2-2.03,0.15-5.7-3.03-6.6c-2.11-0.58-4.02,0.08-5.29,1.4
		c-1.89,1.97-1.85,4.83-1.28,6.8c0.98,3.4,3.23,6.04,6.21,7.97c-1.54,5.32-6.98,6.7-9.83,5.13c-2.45-1.34-2.79-4.13-1.78-5.72
		c1.78-2.84,5.86-1.99,6.22,1.13c0.05,0.47-0.19,0.82-0.49,0.26c-0.72-1.3-2.46-0.9-2.7,0.35c-0.3,1.55,1.48,2.42,2.61,1.8
		c1.72-0.94,1.88-3.69-0.13-5.4c-1.32-0.99-3.03-1.15-4.49-0.47C37.11,32.6,32,30.75,26.46,32.1c-4.46,1.09-7.6,5.07-6.71,9.38
		c0.75,3.6,3.87,5.2,6.9,4.71c3.15-0.49,4.56-3.56,4.01-5.65c-0.69-2.59-3.82-3.69-5.41-2.47c-1.24,0.93-1.16,2.96,0.6,3.31
		c1.29,0.27,2.51-1.12,1.58-2.49c-0.39-0.57,0.02-0.62,0.48-0.36c3.02,1.7,2.1,5.95-1.62,6.51c-2.06,0.31-4.74-0.96-4.96-4.25
		c-0.21-2.98,2.47-6.29,7.54-7.15c4.06-0.69,7.6,0.3,10,1.19c-0.32,0.26-0.6,0.56-0.85,0.94c-1.32,1.89-1.24,5.19,1.44,7.35
		c3.52,2.84,10.71,1.33,13.33-4.77c0.71,0.35,1.44,0.65,2.19,0.94v0.01h0.01V39.3c0.76-0.28,1.5-0.59,2.2-0.94
		c2.62,6.1,9.83,7.6,13.33,4.77c2.68-2.16,2.77-5.46,1.44-7.35c-0.25-0.37-0.53-0.67-0.85-0.94c2.4-0.9,5.93-1.88,9.99-1.19
		c5.09,0.86,7.73,4.17,7.54,7.15c-0.22,3.28-2.89,4.56-4.95,4.25c-3.71-0.56-4.64-4.81-1.62-6.51c0.45-0.26,0.86-0.22,0.48,0.36
		c-0.94,1.37,0.28,2.75,1.58,2.49c1.76-0.35,1.82-2.38,0.6-3.31c-1.6-1.22-4.73-0.12-5.41,2.47c-0.56,2.1,0.85,5.16,4,5.65
		c3.04,0.49,6.16-1.11,6.9-4.71C91.08,37.16,87.96,33.19,83.48,32.1 M33.3,41.11c0.07,0.71,0.62,1.25,1.25,1.15
		c0.55-0.09,0.69-0.78,0.53-1.94c-0.38-2.77,1.84-4.21,1.71-4.34C36.55,35.73,32.95,37.99,33.3,41.11 M73.15,35.97
		c-0.13,0.13,2.08,1.56,1.71,4.34c-0.15,1.17-0.02,1.85,0.52,1.94c0.64,0.11,1.19-0.44,1.27-1.15
		C76.98,37.99,73.39,35.73,73.15,35.97 M54.98,22.29c-0.63-3.97-3.4-4.02-3.4-4.02c3.13-0.55,3.4-4.19,3.4-4.19s0.26,3.64,3.4,4.19
		C58.38,18.26,55.6,18.32,54.98,22.29"/>
</g>
</svg>
